<svg width="74" height="105" viewBox="0 0 74 105" fill="none" xmlns="http://www.w3.org/2000/svg">
<path d="M46.0792 1.2899C45.3891 2.02064 43.7537 3.5681 42.4485 4.75735C38.0976 8.68332 37.2124 10.0875 37.0923 13.297C37.0023 15.9048 37.6325 17.8821 39.2678 20.1317C39.7029 20.7334 40.063 21.192 40.063 21.1346C40.063 21.0917 39.7929 20.5328 39.4628 19.9024C38.2026 17.4952 37.8275 14.5723 38.5176 12.4947C39.1628 10.546 40.108 9.37108 43.3037 6.5484C43.9788 5.96093 44.804 5.14422 45.149 4.75735L45.7942 4.04094L45.7042 7.04988C45.6591 9.04152 45.5541 10.417 45.3891 11.1335C44.834 13.555 43.7537 15.4749 41.7883 17.5812C40.363 19.1143 39.958 19.9884 40.348 20.7048C40.408 20.8337 40.5131 21.3782 40.5731 21.894L40.6631 22.8397L39.8079 23.3842C36.9123 25.2182 34.8719 27.869 34.0467 30.8779C33.8217 31.6803 33.7316 32.454 33.7316 33.7006C33.7166 36.3513 34.2267 38.5579 35.517 41.3376L36.1922 42.7991L35.9521 43.9453C35.7121 45.1059 35.637 48.5591 35.8471 49.4618C35.9221 49.82 36.0121 49.8916 36.3872 49.8916H36.8373L36.9423 48.0432C37.3324 41.4522 39.6129 37.6265 44.969 34.5746C49.0949 32.2248 50.3101 30.9066 53.0557 25.8057C55.2162 21.7508 55.9063 20.6761 57.5716 18.6272L58.5168 17.4666L57.1816 18.0111C55.0211 18.8994 51.9155 19.7878 48.1647 20.5902C44.5639 21.3496 42.9286 21.7937 41.6833 22.3955C41.2932 22.5818 40.9332 22.7394 40.8881 22.7394C40.8431 22.7394 40.8281 22.1663 40.8731 21.4499C40.9482 19.9167 40.9632 19.8881 43.2887 17.5669C44.5489 16.3203 45.074 15.6612 45.5091 14.8445C46.4693 13.0248 46.5443 12.4947 46.4393 8.98421C46.3343 5.6887 46.5143 3.53945 47.1145 1.14661C47.2645 0.530499 47.3845 0.0146751 47.3695 0.000347137C47.3545 -0.0139809 46.7694 0.573483 46.0792 1.2899ZM52.9957 23.7567C49.9801 29.0582 47.8796 31.3078 43.0636 34.417C42.1184 35.0331 41.0082 35.8069 40.6031 36.1221C39.1178 37.297 37.4224 39.6182 36.7773 41.3519C36.6273 41.7674 36.4622 42.054 36.4172 41.9824C36.1772 41.6242 35.532 38.7012 35.382 37.34C34.8869 32.8266 36.6423 28.8719 40.333 26.2212C42.4485 24.6881 44.3689 23.986 48.2397 23.3125C49.89 23.026 52.5156 22.2952 53.6408 21.8224C53.8959 21.7221 54.1059 21.6505 54.1359 21.6648C54.1509 21.6791 53.6408 22.6248 52.9957 23.7567Z" fill="#151618"/>
<path d="M19.681 4.86873C20.5758 8.09706 20.8442 12.3298 20.4117 16.2898C19.8749 21.2256 20.3223 22.7178 23.5136 26.7783C24.3786 27.8688 25.3479 29.2893 25.6909 29.9206C26.6602 31.8002 27.1822 34.4689 27.1971 37.6829V39.0173L26.8392 38.8738C26.0041 38.5725 24.4979 38.4434 20.71 38.3716C18.5029 38.3286 16.2212 38.2282 15.6396 38.1708C15.0729 38.099 14.5808 38.0703 14.5659 38.0847C14.5361 38.099 14.8343 38.3286 15.237 38.6012C16.9221 39.7634 18.6222 41.27 20.5907 43.3504C21.7539 44.57 23.1408 45.9188 23.6926 46.3349C26.0488 48.1284 28.748 49.1758 32.0139 49.5488C33.3561 49.7067 32.8192 49.2188 30.5525 48.2719C26.9436 46.751 25.1391 45.517 22.3653 42.6904C21.3214 41.6287 20.0538 40.4952 19.5617 40.1652L18.6669 39.5912H20.4267C25.0496 39.5912 27.6594 40.4521 29.8814 42.7048C30.985 43.8096 31.7753 45.187 32.178 46.6649C32.2973 47.1384 32.4315 47.5544 32.4762 47.5975C32.6254 47.7266 32.5806 45.9044 32.4166 44.9C32.0736 42.8196 30.3437 40.5239 28.3603 39.5195L27.4953 39.089V36.7216C27.4953 32.0154 27.0629 30.3941 24.7961 26.7209C21.7986 21.8426 21.3065 19.9199 21.396 13.162C21.4258 11.0671 21.4706 9.34535 21.4855 9.3597C21.4855 9.37405 21.7986 9.77579 22.1565 10.2493C22.5294 10.7228 23.8566 12.1432 25.1242 13.4059C28.1962 16.462 29.3744 18.2268 30.1051 20.8813C30.9253 23.7939 30.2542 27.8688 28.3156 31.8002C27.9576 32.5319 27.6892 33.1346 27.7041 33.1346C27.7339 33.1346 27.9875 32.7902 28.2857 32.3598C30.627 28.9736 31.8052 25.157 31.6262 21.5843C31.5218 19.633 31.1192 18.1121 30.2691 16.419C29.4042 14.6685 28.405 13.4346 25.5119 10.5506C23.2601 8.29794 21.7092 6.63355 20.0837 4.79699L19.4573 4.07958L19.681 4.86873Z" fill="#151618"/>
<path d="M46.5727 40.036C43.1472 40.7349 40.8185 43.6446 40.8034 47.2105C40.8034 47.9236 40.7734 47.9807 40.3377 48.1233C39.5565 48.3801 40.1274 48.5084 42.5462 48.6083C46.0017 48.7509 48.1201 48.3658 49.923 47.2533C50.4188 46.9537 51.6658 45.9981 52.7024 45.128C54.8058 43.3879 55.8875 42.6462 57.6604 41.7476L58.8473 41.1486L57.4049 41.0487C56.6237 41.0059 55.2265 40.8205 54.295 40.6636C53.3635 40.5067 51.8911 40.25 51.0198 40.1073C49.1868 39.7936 47.8647 39.765 46.5727 40.036ZM51.5306 41.8189C52.2667 41.9901 53.4086 42.1755 54.0396 42.2183L55.2114 42.3182L53.5738 43.5733C51.0799 45.4846 49.4272 46.3547 47.3088 46.8682C46.2271 47.1392 41.3894 47.8381 41.2842 47.7382C41.149 47.6098 41.5847 46.2834 42.1105 45.2421C43.027 43.4307 44.7548 42.1327 46.9332 41.605C48.045 41.334 49.7878 41.4196 51.5306 41.8189Z" fill="#151618"/>
<path d="M13.0565 55.6406C12.876 63.3895 13.2971 66.0109 15.3276 69.9142C16.3955 71.9594 18.1251 74.3503 19.3584 75.4738C19.6592 75.7475 19.8999 76.0067 19.8999 76.0499C19.8999 76.1075 16.1548 76.1219 11.5975 76.0931C7.02522 76.0643 3.12973 76.0931 2.9342 76.1363C2.75371 76.1795 2.51307 76.3812 2.42282 76.5684C2.28746 76.8709 2.3025 76.9717 2.52811 77.2166C2.79884 77.5046 2.96428 77.5046 36.4745 77.5046C59.4113 77.5046 70.2405 77.4614 70.4511 77.3606C70.8421 77.159 70.8421 76.41 70.4511 76.2084C70.2555 76.1219 67.1572 76.0643 61.4117 76.0643H52.6732L53.5906 75.0129C56.2077 72.0602 57.9073 68.8195 59.0203 64.6858C59.3361 63.548 59.3662 63.0583 59.4113 57.297L59.4865 51.1469H36.3241H13.1617L13.0565 55.6406Z" fill="#151618"/>
<path d="M6.81415 79.4549C11.8963 81.7461 19.7301 83.6129 27.0377 84.2777C28.3308 84.4049 28.9172 84.504 28.6916 84.5605C28.3759 84.6454 28.3608 84.6595 28.6164 84.6737C28.7818 84.6878 29.8043 84.7585 30.8719 84.8434C36.375 85.2252 48.1633 84.999 47.8325 84.504C47.7874 84.4332 47.8025 84.4049 47.8927 84.4474C47.9679 84.4898 48.2385 84.4757 48.4791 84.4049C48.9001 84.2918 48.9001 84.2918 48.3137 84.2635C47.9528 84.2494 48.7197 84.0797 50.1932 83.8392C54.7792 83.1038 58.5532 82.2128 61.6507 81.1379C63.4249 80.5156 66.8682 79.1013 67.1088 78.8751C67.1839 78.8043 55.4408 78.7478 36.2848 78.7619L5.31055 78.7761L6.81415 79.4549Z" fill="#151618"/>
<path d="M5.82715 100.451H5.625C5.61914 100.451 5.60156 100.454 5.57227 100.46C5.54883 100.466 5.52246 100.475 5.49316 100.486C5.46387 100.492 5.43457 100.498 5.40527 100.504C5.37598 100.51 5.3584 100.513 5.35254 100.513C5.05371 100.542 4.75195 100.56 4.44727 100.565C4.14258 100.577 3.83789 100.583 3.5332 100.583C3.46875 100.583 3.38672 100.58 3.28711 100.574C3.19336 100.574 3.10254 100.562 3.01465 100.539C2.92676 100.51 2.85059 100.469 2.78613 100.416C2.72168 100.363 2.68945 100.287 2.68945 100.188C2.68945 100.111 2.70703 100.035 2.74219 99.959C2.77734 99.8828 2.82715 99.8301 2.8916 99.8008C2.9502 99.7949 3.05273 99.7891 3.19922 99.7832C3.3457 99.7773 3.49805 99.7715 3.65625 99.7656C3.82031 99.7539 3.97559 99.7451 4.12207 99.7393C4.26855 99.7275 4.37109 99.7158 4.42969 99.7041C4.46484 99.7041 4.51172 99.7041 4.57031 99.7041C4.62891 99.6982 4.6875 99.6895 4.74609 99.6777C4.81055 99.6602 4.86621 99.6396 4.91309 99.6162C4.96582 99.5928 5.00684 99.5605 5.03613 99.5195C5.10645 99.373 5.1416 99.2178 5.1416 99.0537V98.7812V98.0781C5.1416 98.0605 5.14453 98.0195 5.15039 97.9551C5.16211 97.8906 5.1709 97.8203 5.17676 97.7441C5.18848 97.668 5.2002 97.5947 5.21191 97.5244C5.22363 97.4541 5.22949 97.4102 5.22949 97.3926C5.25879 96.7832 5.27637 96.1709 5.28223 95.5557C5.28809 94.9404 5.29102 94.3281 5.29102 93.7188C5.29102 93.4609 5.28809 93.209 5.28223 92.9629C5.27637 92.7168 5.27344 92.4707 5.27344 92.2246C5.27344 92.1367 5.27344 91.9932 5.27344 91.7939C5.2793 91.5889 5.28223 91.3779 5.28223 91.1611C5.28223 90.9385 5.28223 90.7305 5.28223 90.5371C5.28809 90.3379 5.29102 90.2002 5.29102 90.124C5.26172 90.0068 5.2207 89.9102 5.16797 89.834C5.12109 89.752 5.05664 89.6729 4.97461 89.5967C4.94531 89.5908 4.89258 89.585 4.81641 89.5791C4.74609 89.5674 4.66992 89.5586 4.58789 89.5527C4.51172 89.541 4.43555 89.5322 4.35938 89.5264C4.28906 89.5205 4.23926 89.5176 4.20996 89.5176C4.19824 89.5176 4.16895 89.5234 4.12207 89.5352C4.08105 89.541 4.03418 89.5498 3.98145 89.5615C3.93457 89.5674 3.8877 89.5762 3.84082 89.5879C3.79395 89.5938 3.76465 89.5967 3.75293 89.5967C3.71777 89.6025 3.64453 89.6055 3.5332 89.6055C3.42773 89.6055 3.31348 89.6055 3.19043 89.6055C3.07324 89.6055 2.96191 89.6055 2.85645 89.6055C2.75098 89.6055 2.6748 89.6025 2.62793 89.5967C2.54004 89.6318 2.44336 89.6582 2.33789 89.6758C2.23242 89.6875 2.13281 89.7256 2.03906 89.79C2.03906 89.8018 2.02148 89.8252 1.98633 89.8604C1.95117 89.8955 1.92773 89.9189 1.91602 89.9307C1.86914 89.9834 1.80469 90.0566 1.72266 90.1504C1.64648 90.2383 1.57031 90.3291 1.49414 90.4229C1.41797 90.5166 1.34766 90.5986 1.2832 90.6689C1.22461 90.7393 1.19238 90.7773 1.18652 90.7832C1.14551 90.8359 1.10449 90.9092 1.06348 91.0029C1.02832 91.0908 0.987305 91.1787 0.94043 91.2666C0.893555 91.3486 0.837891 91.4219 0.773438 91.4863C0.708984 91.5508 0.629883 91.583 0.536133 91.583C0.46582 91.583 0.416016 91.5654 0.386719 91.5303C0.357422 91.4893 0.333984 91.4424 0.316406 91.3896C0.316406 91.3721 0.316406 91.3457 0.316406 91.3105C0.316406 91.2695 0.313477 91.2285 0.307617 91.1875C0.307617 91.1406 0.307617 91.0967 0.307617 91.0557C0.307617 91.0088 0.307617 90.9766 0.307617 90.959C0.307617 90.9414 0.307617 90.915 0.307617 90.8799C0.307617 90.8389 0.307617 90.8008 0.307617 90.7656C0.313477 90.7246 0.316406 90.6895 0.316406 90.6602C0.316406 90.625 0.316406 90.6045 0.316406 90.5986C0.322266 90.5811 0.333984 90.5371 0.351562 90.4668C0.375 90.3906 0.398438 90.3115 0.421875 90.2295C0.445312 90.1475 0.46582 90.0713 0.483398 90.001C0.506836 89.9307 0.524414 89.8867 0.536133 89.8691C0.536133 89.8516 0.541992 89.8135 0.553711 89.7549C0.56543 89.6963 0.577148 89.6348 0.588867 89.5703C0.606445 89.5 0.621094 89.4385 0.632812 89.3857C0.644531 89.3271 0.65332 89.2891 0.65918 89.2715C0.65918 89.2598 0.667969 89.2275 0.685547 89.1748C0.708984 89.1221 0.732422 89.0635 0.755859 88.999C0.779297 88.9346 0.799805 88.876 0.817383 88.8232C0.84082 88.7705 0.852539 88.7383 0.852539 88.7266C0.870117 88.6797 0.887695 88.627 0.905273 88.5684C0.928711 88.5039 0.955078 88.4453 0.984375 88.3926C1.01953 88.3398 1.06055 88.2959 1.10742 88.2607C1.1543 88.2197 1.20996 88.1992 1.27441 88.1992C1.37402 88.1992 1.45312 88.2256 1.51172 88.2783C1.57617 88.3311 1.63477 88.3896 1.6875 88.4541C1.74023 88.5186 1.79297 88.5859 1.8457 88.6562C1.89844 88.7207 1.96289 88.7646 2.03906 88.7881C2.16211 88.7881 2.29102 88.7852 2.42578 88.7793C2.56055 88.7734 2.69531 88.7705 2.83008 88.7705C3.08203 88.7705 3.33105 88.7764 3.57715 88.7881C3.82324 88.7998 4.06641 88.8262 4.30664 88.8672C4.30664 88.8672 4.31836 88.873 4.3418 88.8848C4.36523 88.8906 4.38867 88.8994 4.41211 88.9111C4.44141 88.917 4.46777 88.9229 4.49121 88.9287C4.52051 88.9346 4.53809 88.9375 4.54395 88.9375H4.8252C4.97754 88.9375 5.11523 88.9229 5.23828 88.8936C5.36719 88.8643 5.51074 88.8496 5.66895 88.8496C5.69238 88.8496 5.72461 88.8496 5.76562 88.8496C5.8125 88.8496 5.85938 88.8496 5.90625 88.8496C5.95312 88.8496 5.99414 88.8525 6.0293 88.8584C6.06445 88.8584 6.08789 88.8613 6.09961 88.8672C6.12305 88.8672 6.16992 88.873 6.24023 88.8848C6.31641 88.8906 6.39844 88.8994 6.48633 88.9111C6.57422 88.917 6.65332 88.9229 6.72363 88.9287C6.7998 88.9346 6.84961 88.9375 6.87305 88.9375C6.91992 88.9199 6.97559 88.9053 7.04004 88.8936C7.11035 88.8818 7.20117 88.873 7.3125 88.8672C7.42969 88.8613 7.57617 88.8584 7.75195 88.8584C7.92773 88.8525 8.14746 88.8496 8.41113 88.8496L10.002 88.8672C10.1016 88.8672 10.2041 88.835 10.3096 88.7705C10.415 88.7002 10.5205 88.6211 10.626 88.5332C10.7314 88.4395 10.834 88.3486 10.9336 88.2607C11.0391 88.1729 11.1416 88.1113 11.2412 88.0762H11.3467C11.5166 88.0762 11.6367 88.167 11.707 88.3486C11.7129 88.4189 11.7246 88.5508 11.7422 88.7441C11.7598 88.9316 11.7773 89.1309 11.7949 89.3418C11.8184 89.5527 11.8418 89.752 11.8652 89.9395C11.8887 90.127 11.9062 90.2588 11.918 90.335C11.918 90.3467 11.9209 90.3672 11.9268 90.3965C11.9326 90.4258 11.9385 90.4609 11.9443 90.502C11.9561 90.5371 11.9648 90.5723 11.9707 90.6074C11.9766 90.6367 11.9795 90.6543 11.9795 90.6602V90.792C11.9795 90.9443 11.9736 91.082 11.9619 91.2051C11.9502 91.3281 11.9355 91.4688 11.918 91.627C11.8945 91.6738 11.8652 91.7061 11.8301 91.7236C11.8008 91.7354 11.7715 91.7412 11.7422 91.7412C11.7246 91.7412 11.707 91.7324 11.6895 91.7148C11.6719 91.709 11.6572 91.7002 11.6455 91.6885C11.5576 91.6475 11.4814 91.5889 11.417 91.5127C11.3584 91.4365 11.3057 91.3545 11.2588 91.2666C11.2178 91.1787 11.1797 91.0879 11.1445 90.9941C11.1094 90.8945 11.0742 90.8037 11.0391 90.7217C10.9395 90.4697 10.7754 90.2676 10.5469 90.1152C10.3242 89.9629 10.0928 89.834 9.85254 89.7285C9.7002 89.6641 9.55078 89.6318 9.4043 89.6318C9.25781 89.6318 9.09961 89.6201 8.92969 89.5967C8.91797 89.5967 8.87402 89.585 8.79785 89.5615C8.72754 89.5322 8.68066 89.5176 8.65723 89.5176H8.26172H7.81348C7.7666 89.5176 7.69922 89.5293 7.61133 89.5527C7.52344 89.5703 7.47656 89.585 7.4707 89.5967C7.45312 89.6201 7.43262 89.6436 7.40918 89.667C7.36816 89.7197 7.3418 89.7607 7.33008 89.79C7.30664 89.8311 7.28027 89.8867 7.25098 89.957C7.22168 90.0215 7.20703 90.0566 7.20703 90.0625C7.20117 90.0801 7.19531 90.1123 7.18945 90.1592C7.18359 90.2002 7.17773 90.2441 7.17188 90.291C7.17188 90.3379 7.16895 90.3848 7.16309 90.4316C7.15723 90.4727 7.15137 90.502 7.14551 90.5195C7.14551 90.6133 7.14844 90.7744 7.1543 91.0029C7.16016 91.2314 7.16309 91.4775 7.16309 91.7412C7.16309 92.0049 7.16016 92.2539 7.1543 92.4883C7.14844 92.7168 7.14551 92.8721 7.14551 92.9541C7.14551 93.2529 7.12207 93.5459 7.0752 93.833C7.03418 94.1143 7.01367 94.4043 7.01367 94.7031C7.01367 95.0254 7.02246 95.3477 7.04004 95.6699C7.06348 95.9863 7.0752 96.3115 7.0752 96.6455C7.0752 97.0498 7.06348 97.457 7.04004 97.8672C7.02246 98.2773 7.01367 98.6875 7.01367 99.0977C7.01367 99.2207 7.04004 99.3174 7.09277 99.3877C7.15137 99.458 7.22461 99.5107 7.3125 99.5459C7.40039 99.5811 7.49707 99.6045 7.60254 99.6162C7.71387 99.6279 7.81934 99.6367 7.91895 99.6426C7.96582 99.6484 8.03906 99.6543 8.13867 99.6602C8.24414 99.666 8.35254 99.6719 8.46387 99.6777C8.58105 99.6836 8.68945 99.6895 8.78906 99.6953C8.88867 99.7012 8.95898 99.7041 9 99.7041C9.11133 99.7451 9.19336 99.8096 9.24609 99.8975C9.30469 99.9854 9.33398 100.082 9.33398 100.188C9.33398 100.322 9.2959 100.428 9.21973 100.504C9.14355 100.574 9.04688 100.647 8.92969 100.724H8.91211C8.69531 100.724 8.49316 100.706 8.30566 100.671C8.12402 100.642 7.93066 100.612 7.72559 100.583C7.09863 100.495 6.46582 100.451 5.82715 100.451ZM12.6738 100.557C12.6738 100.533 12.6562 100.501 12.6211 100.46C12.5918 100.413 12.5742 100.375 12.5684 100.346V100.311V100.302C12.5801 100.278 12.6064 100.243 12.6475 100.196C12.6885 100.149 12.7324 100.103 12.7793 100.056C12.832 100.003 12.8789 99.9561 12.9199 99.915C12.9668 99.874 12.999 99.8447 13.0166 99.8271C13.0283 99.8154 13.0664 99.8037 13.1309 99.792C13.2012 99.7744 13.251 99.7656 13.2803 99.7656H13.9043C13.9219 99.7656 13.9453 99.7627 13.9746 99.7568C14.0098 99.7451 14.042 99.7363 14.0713 99.7305C14.1064 99.7188 14.1357 99.707 14.1592 99.6953C14.1885 99.6836 14.2031 99.6777 14.2031 99.6777C14.2852 99.6367 14.332 99.5723 14.3438 99.4844C14.3613 99.3906 14.3701 99.3027 14.3701 99.2207V99.0801C14.3701 98.875 14.3643 98.6816 14.3525 98.5C14.3467 98.3125 14.3438 98.1162 14.3438 97.9111V97.8496C14.3438 97.832 14.3467 97.7998 14.3525 97.7529C14.3584 97.7061 14.3643 97.6562 14.3701 97.6035C14.3818 97.5449 14.3936 97.4922 14.4053 97.4453C14.417 97.3984 14.4258 97.3662 14.4316 97.3486V93.5166C14.4316 93.3994 14.4111 93.3057 14.3701 93.2354C14.3291 93.165 14.2764 93.1123 14.2119 93.0771C14.1475 93.0361 14.0713 93.0098 13.9834 92.998C13.9014 92.9863 13.8135 92.9805 13.7197 92.9805H13.3594C13.1953 92.9805 13.0576 92.96 12.9463 92.9189C12.835 92.8779 12.7793 92.7783 12.7793 92.6201C12.7793 92.5674 12.7793 92.5205 12.7793 92.4795C12.7852 92.4385 12.7998 92.3828 12.8232 92.3125C13.1045 92.3242 13.3799 92.3154 13.6494 92.2861C13.9189 92.2568 14.1914 92.2422 14.4668 92.2422H14.6953C14.7188 92.248 14.7656 92.2539 14.8359 92.2598C14.9121 92.2656 14.9883 92.2715 15.0645 92.2773C15.1465 92.2832 15.2227 92.2891 15.293 92.2949C15.3633 92.3008 15.4131 92.3066 15.4424 92.3125H19.5732C19.749 92.3125 19.875 92.3594 19.9512 92.4531C20.0273 92.541 20.083 92.6523 20.1182 92.7871V93.2881V93.8066C20.1182 93.8418 20.1123 93.9062 20.1006 94C20.0889 94.0879 20.0742 94.1846 20.0566 94.29C20.0449 94.3896 20.0303 94.4893 20.0127 94.5889C20.001 94.6826 19.9922 94.75 19.9863 94.791C19.9746 94.8086 19.9541 94.835 19.9248 94.8701C19.8955 94.8994 19.875 94.9141 19.8633 94.9141C19.8633 94.9258 19.8574 94.9316 19.8457 94.9316H19.8369H19.8105C19.793 94.9316 19.7842 94.9258 19.7842 94.9141C19.6846 94.8438 19.6084 94.7646 19.5557 94.6768C19.5029 94.583 19.459 94.4863 19.4238 94.3867C19.3887 94.2871 19.3564 94.1875 19.3271 94.0879C19.2979 93.9883 19.2539 93.8945 19.1953 93.8066C19.1836 93.7832 19.1455 93.7451 19.0811 93.6924C19.0225 93.6338 18.9902 93.6016 18.9844 93.5957C18.9727 93.584 18.9463 93.5518 18.9053 93.499C18.8701 93.4463 18.8291 93.3906 18.7822 93.332C18.7412 93.2676 18.7002 93.209 18.6592 93.1562C18.624 93.1035 18.6006 93.0713 18.5889 93.0596C18.5654 93.0068 18.5391 92.9805 18.5098 92.9805C18.5039 92.9805 18.4834 92.9775 18.4482 92.9717C18.4189 92.9658 18.3838 92.96 18.3428 92.9541C18.3076 92.9424 18.2725 92.9336 18.2373 92.9277C18.208 92.9219 18.1934 92.916 18.1934 92.9102C18.1758 92.9102 18.1436 92.9043 18.0967 92.8926C18.0498 92.8809 17.9971 92.8691 17.9385 92.8574C17.8857 92.8457 17.8359 92.834 17.7891 92.8223C17.7422 92.8047 17.7129 92.793 17.7012 92.7871H17.6572C17.6338 92.7871 17.6016 92.7959 17.5605 92.8135C17.5195 92.8252 17.4902 92.8311 17.4727 92.8311H17.4463C17.4287 92.8252 17.3789 92.8193 17.2969 92.8135C17.2207 92.8076 17.1357 92.8047 17.042 92.8047C16.9482 92.7988 16.8604 92.7959 16.7783 92.7959C16.7021 92.79 16.6553 92.7871 16.6377 92.7871H16.6113C16.5059 92.7871 16.418 92.8076 16.3477 92.8486C16.2773 92.8896 16.2188 92.9424 16.1719 93.0068C16.1309 93.0713 16.0928 93.1445 16.0576 93.2266C16.0283 93.3027 15.999 93.3789 15.9697 93.4551C15.9639 93.5195 15.9521 93.625 15.9346 93.7715C15.9229 93.918 15.9082 94.0732 15.8906 94.2373C15.8789 94.4014 15.8672 94.5566 15.8555 94.7031C15.8438 94.8496 15.8379 94.9521 15.8379 95.0107V95.0811V95.125C15.8379 95.1543 15.8408 95.2041 15.8467 95.2744C15.8525 95.3447 15.8584 95.4209 15.8643 95.5029C15.8701 95.5791 15.876 95.6553 15.8818 95.7314C15.8936 95.8018 15.9023 95.8486 15.9082 95.8721C15.9492 95.9248 15.9961 95.9775 16.0488 96.0303C16.1074 96.083 16.1689 96.1182 16.2334 96.1357H16.7168C16.916 96.1357 17.0889 96.1328 17.2354 96.127C17.3877 96.1211 17.5693 96.1035 17.7803 96.0742C17.7861 96.0625 17.7949 96.042 17.8066 96.0127C17.8184 95.9834 17.833 95.9541 17.8506 95.9248C17.8682 95.8955 17.8828 95.8691 17.8945 95.8457C17.9062 95.8223 17.915 95.8076 17.9209 95.8018C17.9443 95.7607 17.9736 95.7021 18.0088 95.626C18.0439 95.5439 18.0791 95.4648 18.1143 95.3887C18.1494 95.3066 18.1787 95.2363 18.2021 95.1777C18.2314 95.1191 18.249 95.0869 18.2549 95.0811C18.2666 95.0576 18.2783 95.0078 18.29 94.9316C18.3018 94.8496 18.3135 94.8027 18.3252 94.791C18.3721 94.7383 18.4336 94.7031 18.5098 94.6855C18.5859 94.668 18.6621 94.6592 18.7383 94.6592C18.8203 94.6592 18.8701 94.6914 18.8877 94.7559C18.9111 94.8145 18.9229 94.8818 18.9229 94.958V95.1777V95.2832C18.9229 95.3359 18.917 95.3887 18.9053 95.4414C18.8936 95.4883 18.873 95.5352 18.8438 95.582C18.8379 95.6348 18.832 95.7227 18.8262 95.8457C18.8203 95.9688 18.8145 96.0977 18.8086 96.2324C18.8027 96.3672 18.7969 96.4961 18.791 96.6191C18.7852 96.7363 18.7822 96.8184 18.7822 96.8652V97.0938V97.6211C18.7764 97.6328 18.7705 97.6592 18.7646 97.7002C18.7588 97.7412 18.7529 97.7881 18.7471 97.8408C18.7471 97.8877 18.7441 97.9346 18.7383 97.9814C18.7324 98.0283 18.7266 98.0605 18.7207 98.0781C18.6562 98.125 18.5977 98.1602 18.5449 98.1836C18.498 98.207 18.4395 98.2188 18.3691 98.2188C18.3223 98.2188 18.2783 98.2012 18.2373 98.166C18.1963 98.125 18.1582 98.0752 18.123 98.0166C18.0879 97.958 18.0586 97.8994 18.0352 97.8408C18.0117 97.7764 17.9971 97.7178 17.9912 97.665C17.9854 97.6475 17.9766 97.6094 17.9648 97.5508C17.959 97.4863 17.9531 97.4189 17.9473 97.3486C17.9414 97.2725 17.9355 97.2021 17.9297 97.1377C17.9238 97.0732 17.9209 97.0264 17.9209 96.9971C17.9033 96.9736 17.8711 96.9531 17.8242 96.9355C17.7832 96.9121 17.7422 96.8887 17.7012 96.8652C17.666 96.8535 17.6104 96.8389 17.5342 96.8213C17.458 96.8037 17.376 96.7891 17.2881 96.7773C17.2061 96.7598 17.127 96.748 17.0508 96.7422C16.9805 96.7305 16.9336 96.7246 16.9102 96.7246C16.8926 96.7246 16.8604 96.7246 16.8135 96.7246C16.7725 96.7188 16.7227 96.7158 16.6641 96.7158C16.6113 96.7158 16.5586 96.7158 16.5059 96.7158C16.4531 96.71 16.4121 96.707 16.3828 96.707C16.3652 96.707 16.3359 96.71 16.2949 96.7158C16.2598 96.7158 16.2217 96.7158 16.1807 96.7158C16.1455 96.7158 16.1133 96.7188 16.084 96.7246C16.0547 96.7246 16.0371 96.7246 16.0312 96.7246L15.9082 96.8652V97.1641C15.9082 97.5098 15.8965 97.8438 15.873 98.166C15.8496 98.4824 15.8379 98.8135 15.8379 99.1592C15.8379 99.335 15.8525 99.4639 15.8818 99.5459C15.9111 99.6279 15.958 99.6865 16.0225 99.7217C16.0869 99.7568 16.1689 99.7832 16.2686 99.8008C16.3682 99.8184 16.4912 99.8477 16.6377 99.8887C16.6494 99.8887 16.6699 99.8975 16.6992 99.915C16.7285 99.9326 16.749 99.9502 16.7607 99.9678H17.4463H18.0967C18.1084 99.9678 18.1348 99.9648 18.1758 99.959C18.2168 99.9473 18.2607 99.9385 18.3076 99.9326C18.3545 99.9209 18.3955 99.9121 18.4307 99.9062C18.4717 99.8945 18.498 99.8887 18.5098 99.8887H18.9316H19.0986C19.1104 99.8887 19.1309 99.8799 19.1602 99.8623C19.1895 99.8389 19.2188 99.8154 19.248 99.792C19.2832 99.7627 19.3125 99.7363 19.3359 99.7129C19.3594 99.6895 19.374 99.6777 19.3799 99.6777C19.4209 99.6602 19.4531 99.6514 19.4766 99.6514C19.5059 99.6455 19.5293 99.6426 19.5469 99.6426C19.5645 99.6367 19.582 99.6279 19.5996 99.6162C19.6172 99.5986 19.6348 99.5723 19.6523 99.5371C19.7168 99.4434 19.7637 99.3467 19.793 99.2471C19.8223 99.1475 19.8604 99.0479 19.9072 98.9482C19.9307 98.9307 19.96 98.8955 19.9951 98.8428C20.0303 98.7842 20.0508 98.7461 20.0566 98.7285C20.0625 98.7285 20.0801 98.7197 20.1094 98.7021C20.1387 98.6787 20.168 98.6553 20.1973 98.6318C20.2266 98.6025 20.2529 98.5762 20.2764 98.5527C20.2998 98.5234 20.3145 98.5029 20.3203 98.4912C20.3262 98.4736 20.3379 98.4502 20.3555 98.4209C20.3789 98.3857 20.4023 98.3506 20.4258 98.3154C20.4492 98.2744 20.4697 98.2393 20.4873 98.21C20.5107 98.1748 20.5254 98.1514 20.5312 98.1396C20.5312 98.1338 20.54 98.1221 20.5576 98.1045C20.5693 98.0986 20.5811 98.0898 20.5928 98.0781C20.5928 98.0664 20.5957 98.0605 20.6016 98.0605H20.6191C20.707 98.0605 20.7598 98.0957 20.7773 98.166C20.7949 98.2305 20.8037 98.2979 20.8037 98.3682V98.5527C20.8037 98.582 20.8066 98.6523 20.8125 98.7637C20.8184 98.875 20.8213 98.9951 20.8213 99.124C20.8271 99.2471 20.833 99.3643 20.8389 99.4756C20.8447 99.5869 20.8477 99.6543 20.8477 99.6777V99.7041C20.8477 99.7803 20.833 99.8682 20.8037 99.9678C20.7744 100.062 20.7334 100.152 20.6807 100.24C20.6279 100.328 20.5635 100.401 20.4873 100.46C20.417 100.519 20.3408 100.551 20.2588 100.557C20.2178 100.551 20.1416 100.545 20.0303 100.539C19.9248 100.533 19.8105 100.527 19.6875 100.521C19.5645 100.516 19.4473 100.51 19.3359 100.504C19.2246 100.498 19.1455 100.489 19.0986 100.478H18.9316H18.7822C18.7529 100.489 18.6855 100.501 18.5801 100.513C18.4746 100.519 18.3604 100.524 18.2373 100.53C18.1201 100.536 18.0059 100.542 17.8945 100.548C17.7891 100.554 17.7246 100.557 17.7012 100.557H14.3701C14.3525 100.562 14.3232 100.568 14.2822 100.574C14.2471 100.58 14.2061 100.583 14.1592 100.583C14.1182 100.589 14.0771 100.592 14.0361 100.592C13.9951 100.598 13.9658 100.601 13.9482 100.601C13.9482 100.612 13.9277 100.618 13.8867 100.618C13.8457 100.618 13.8076 100.615 13.7725 100.609C13.7373 100.604 13.7139 100.601 13.7021 100.601C13.6787 100.618 13.6318 100.639 13.5615 100.662C13.4912 100.686 13.4414 100.697 13.4121 100.697C13.3828 100.697 13.333 100.691 13.2627 100.68C13.1982 100.668 13.1279 100.653 13.0518 100.636C12.9756 100.624 12.9023 100.609 12.832 100.592C12.7617 100.58 12.709 100.568 12.6738 100.557ZM24.293 97.0762C24.293 97.1582 24.3311 97.2168 24.4072 97.252C24.4834 97.2871 24.5537 97.3047 24.6182 97.3047H25.084C25.1484 97.3047 25.2129 97.3076 25.2773 97.3135C25.3418 97.3193 25.4062 97.3223 25.4707 97.3223C25.623 97.3223 25.7549 97.2988 25.8662 97.252C25.9775 97.1992 26.0332 97.085 26.0332 96.9092V96.7598C25.9805 96.4902 25.9014 96.2236 25.7959 95.96C25.6904 95.6904 25.5908 95.4297 25.4971 95.1777C25.4854 95.1367 25.4678 95.0928 25.4443 95.0459C25.4268 94.9932 25.4033 94.9463 25.374 94.9053C25.3447 94.8584 25.3125 94.8203 25.2773 94.791C25.2422 94.7617 25.2041 94.7471 25.1631 94.7471C25.0869 94.7471 25.0254 94.7793 24.9785 94.8438C24.9375 94.9082 24.9023 94.9844 24.873 95.0723C24.8496 95.1602 24.8291 95.251 24.8115 95.3447C24.7939 95.4326 24.7734 95.5029 24.75 95.5557C24.7324 95.6084 24.7002 95.7021 24.6533 95.8369C24.6123 95.9717 24.5684 96.1152 24.5215 96.2676C24.4746 96.4141 24.4277 96.5547 24.3809 96.6895C24.3398 96.8242 24.3105 96.918 24.293 96.9707V97.0762ZM22.2451 100.513H22.2012C22.1895 100.513 22.1602 100.519 22.1133 100.53C22.0664 100.536 22.0137 100.545 21.9551 100.557C21.8965 100.562 21.8408 100.568 21.7881 100.574C21.7412 100.58 21.7119 100.583 21.7002 100.583H21.6475C21.6123 100.583 21.583 100.568 21.5596 100.539C21.5361 100.51 21.5186 100.478 21.5068 100.442C21.4951 100.401 21.4893 100.363 21.4893 100.328C21.4834 100.287 21.4805 100.261 21.4805 100.249V100.223C21.4805 100.117 21.5156 100.047 21.5859 100.012C21.6621 99.9766 21.7354 99.9443 21.8057 99.915C21.8174 99.915 21.8467 99.9062 21.8936 99.8887C21.9404 99.8652 21.9902 99.8418 22.043 99.8184C22.1016 99.7949 22.1543 99.7744 22.2012 99.7568C22.248 99.7334 22.2773 99.7158 22.2891 99.7041C22.2949 99.6982 22.3125 99.6836 22.3418 99.6602C22.3711 99.6309 22.4033 99.5986 22.4385 99.5635C22.4736 99.5283 22.5059 99.4932 22.5352 99.458C22.5703 99.4229 22.5996 99.3936 22.623 99.3701C22.6289 99.3584 22.6377 99.3438 22.6494 99.3262C22.6729 99.291 22.6846 99.2646 22.6846 99.2471C22.6846 99.2354 22.6904 99.2002 22.7021 99.1416C22.7197 99.083 22.7344 99.0479 22.7461 99.0361C22.9043 98.7197 23.0625 98.4004 23.2207 98.0781C23.3789 97.75 23.5283 97.4219 23.6689 97.0938C23.6865 97.0762 23.71 97.0264 23.7393 96.9443C23.7744 96.8564 23.7979 96.7949 23.8096 96.7598C23.8154 96.748 23.8301 96.7129 23.8535 96.6543C23.877 96.5898 23.9004 96.5254 23.9238 96.4609C23.9473 96.3906 23.9678 96.3262 23.9854 96.2676C24.0088 96.209 24.0205 96.1738 24.0205 96.1621C24.0264 96.1445 24.0439 96.1035 24.0732 96.0391C24.1084 95.9746 24.1436 95.9043 24.1787 95.8281C24.2197 95.752 24.2549 95.6787 24.2842 95.6084C24.3193 95.5381 24.3428 95.4941 24.3545 95.4766C24.4014 95.3711 24.4453 95.2773 24.4863 95.1953C24.5332 95.1074 24.5771 95.0049 24.6182 94.8877C24.6416 94.8408 24.6709 94.7881 24.7061 94.7295C24.7471 94.6709 24.7852 94.6094 24.8203 94.5449C24.8555 94.4746 24.8848 94.4072 24.9082 94.3428C24.9375 94.2783 24.9521 94.2168 24.9521 94.1582V94.0352C24.9521 94.0117 24.9434 93.9736 24.9258 93.9209C24.9141 93.8623 24.9082 93.8301 24.9082 93.8242C24.9082 93.7832 24.9316 93.7305 24.9785 93.666C25.0254 93.6016 25.0605 93.5605 25.084 93.543C25.0957 93.5371 25.1221 93.5254 25.1631 93.5078C25.21 93.4902 25.2568 93.4697 25.3037 93.4463C25.3506 93.4229 25.3916 93.4023 25.4268 93.3848C25.4678 93.3672 25.4912 93.3555 25.4971 93.3496C25.5088 93.3379 25.5322 93.3145 25.5674 93.2793C25.6025 93.2441 25.6406 93.2061 25.6816 93.165C25.7285 93.1182 25.7695 93.0742 25.8047 93.0332C25.8457 92.9863 25.875 92.9541 25.8926 92.9365C25.8984 92.9307 25.9102 92.9131 25.9277 92.8838C25.9453 92.8486 25.9658 92.8164 25.9893 92.7871C26.0127 92.752 26.0391 92.7227 26.0684 92.6992C26.0977 92.6699 26.1299 92.6582 26.165 92.6641C26.2236 92.6816 26.2734 92.7344 26.3145 92.8223C26.3613 92.9102 26.3994 93.0068 26.4287 93.1123C26.4639 93.2119 26.4932 93.3115 26.5166 93.4111C26.54 93.5049 26.5605 93.5693 26.5781 93.6045C26.584 93.6338 26.5928 93.6748 26.6045 93.7275C26.6221 93.7803 26.6367 93.833 26.6484 93.8857C26.666 93.9385 26.6807 93.9854 26.6924 94.0264C26.7041 94.0674 26.71 94.0908 26.71 94.0967C26.7158 94.1143 26.7246 94.1553 26.7363 94.2197C26.748 94.2842 26.7598 94.3545 26.7715 94.4307C26.7891 94.5068 26.8037 94.5771 26.8154 94.6416C26.8271 94.7002 26.833 94.7354 26.833 94.7471C26.8389 94.7646 26.8535 94.8203 26.877 94.9141C26.9062 95.0078 26.9385 95.1162 26.9736 95.2393C27.0088 95.3623 27.0439 95.4854 27.0791 95.6084C27.1143 95.7256 27.1436 95.8193 27.167 95.8896C27.2139 96.0479 27.2725 96.2061 27.3428 96.3643C27.4131 96.5166 27.4658 96.6719 27.501 96.8301C27.5303 96.9648 27.5479 97.0732 27.5537 97.1553C27.5654 97.2314 27.5947 97.3252 27.6416 97.4365C27.6475 97.4482 27.6592 97.4746 27.6768 97.5156C27.7002 97.5508 27.7236 97.5918 27.7471 97.6387C27.7705 97.6797 27.791 97.7207 27.8086 97.7617C27.8262 97.8027 27.8379 97.832 27.8438 97.8496C27.8438 97.8613 27.8467 97.8818 27.8525 97.9111C27.8584 97.9404 27.8643 97.9756 27.8701 98.0166C27.8818 98.0518 27.8906 98.0869 27.8965 98.1221C27.9023 98.1514 27.9082 98.1719 27.9141 98.1836C27.9141 98.1895 27.9199 98.21 27.9316 98.2451C27.9434 98.2744 27.958 98.3096 27.9756 98.3506C27.9932 98.3857 28.0078 98.4209 28.0195 98.4561C28.0371 98.4854 28.0488 98.5 28.0547 98.5C28.084 98.6523 28.1221 98.8164 28.1689 98.9922C28.2158 99.168 28.2891 99.3232 28.3887 99.458C28.4355 99.5283 28.5205 99.5869 28.6436 99.6338C28.7725 99.6807 28.9014 99.7275 29.0303 99.7744C29.165 99.8213 29.2822 99.874 29.3818 99.9326C29.4814 99.9912 29.5312 100.067 29.5312 100.161C29.5312 100.261 29.5049 100.34 29.4521 100.398C29.4053 100.451 29.3438 100.492 29.2676 100.521C29.1914 100.551 29.1064 100.568 29.0127 100.574C28.9189 100.58 28.8311 100.583 28.749 100.583H28.5732H28.3887C28.2949 100.583 28.1309 100.58 27.8965 100.574C27.6621 100.568 27.4102 100.562 27.1406 100.557C26.877 100.545 26.625 100.536 26.3848 100.53C26.1504 100.519 25.9863 100.513 25.8926 100.513C25.8281 100.489 25.79 100.463 25.7783 100.434C25.7666 100.398 25.7607 100.349 25.7607 100.284V100.223C25.7607 100.211 25.7637 100.199 25.7695 100.188C25.8223 100.076 25.8955 100.003 25.9893 99.9678C26.083 99.9268 26.1797 99.8945 26.2793 99.8711C26.3848 99.8477 26.4873 99.8213 26.5869 99.792C26.6865 99.7568 26.7686 99.6865 26.833 99.5811L26.8506 99.5195L26.833 99.458C26.8271 99.4053 26.8125 99.332 26.7891 99.2383C26.7715 99.1445 26.751 99.0508 26.7275 98.957C26.71 98.8633 26.6924 98.7812 26.6748 98.7109C26.6572 98.6348 26.6455 98.5908 26.6396 98.5791C26.6279 98.5674 26.6104 98.5381 26.5869 98.4912C26.5635 98.4443 26.5371 98.3916 26.5078 98.333C26.4844 98.2744 26.458 98.2188 26.4287 98.166C26.4053 98.1074 26.3848 98.0635 26.3672 98.0342C26.3027 97.9346 26.2119 97.876 26.0947 97.8584C25.9834 97.835 25.8721 97.8232 25.7607 97.8232H25.585C25.374 97.8232 25.1748 97.8379 24.9873 97.8672C24.8057 97.8965 24.6123 97.9111 24.4072 97.9111C24.3662 97.9111 24.3252 97.9082 24.2842 97.9023C24.2432 97.8965 24.2021 97.8936 24.1611 97.8936C24.1201 97.9346 24.0996 97.9668 24.0996 97.9902C24.0879 97.9961 24.0732 98.0195 24.0557 98.0605C24.0439 98.0957 24.0293 98.1367 24.0117 98.1836C24 98.2246 23.9854 98.2656 23.9678 98.3066C23.9561 98.3418 23.9502 98.3623 23.9502 98.3682C23.9502 98.3799 23.9297 98.415 23.8887 98.4736C23.8535 98.5322 23.8271 98.5674 23.8096 98.5791C23.7393 98.7256 23.6982 98.8779 23.6865 99.0361C23.6748 99.1885 23.6689 99.3467 23.6689 99.5107C23.6689 99.6045 23.6982 99.6748 23.7568 99.7217C23.8154 99.7627 23.8887 99.7949 23.9766 99.8184C24.0645 99.8418 24.1582 99.8623 24.2578 99.8799C24.3574 99.8916 24.4512 99.9121 24.5391 99.9414C24.627 99.9648 24.7002 100.003 24.7588 100.056C24.8174 100.108 24.8467 100.185 24.8467 100.284C24.8467 100.478 24.7559 100.598 24.5742 100.645C24.5508 100.645 24.5068 100.642 24.4424 100.636C24.3838 100.63 24.3223 100.624 24.2578 100.618C24.1934 100.612 24.1318 100.606 24.0732 100.601C24.0146 100.595 23.9736 100.589 23.9502 100.583H23.3262H23.0801C23.0625 100.583 23.0156 100.58 22.9395 100.574C22.8633 100.568 22.7783 100.562 22.6846 100.557C22.5908 100.545 22.5059 100.536 22.4297 100.53C22.3535 100.519 22.3066 100.513 22.2891 100.513H22.2451ZM31.1924 100.557C31.1807 100.557 31.1455 100.562 31.0869 100.574C31.0342 100.592 31.0049 100.601 30.999 100.601H30.9639C30.8877 100.601 30.8115 100.598 30.7354 100.592C30.665 100.586 30.6006 100.571 30.542 100.548C30.4893 100.524 30.4453 100.489 30.4102 100.442C30.375 100.396 30.3574 100.331 30.3574 100.249V100.117C30.3633 100.059 30.4336 100.018 30.5684 99.9941C30.709 99.9648 30.8643 99.9473 31.0342 99.9414C31.2041 99.9297 31.3652 99.9209 31.5176 99.915C31.6699 99.9033 31.7607 99.8799 31.79 99.8447C31.7959 99.8154 31.8018 99.7891 31.8076 99.7656C31.8135 99.7422 31.8193 99.7217 31.8252 99.7041C31.8311 99.6865 31.834 99.6719 31.834 99.6602C31.834 99.6367 31.8369 99.6016 31.8428 99.5547C31.8545 99.502 31.8633 99.4492 31.8691 99.3965C31.8809 99.3379 31.8896 99.2852 31.8955 99.2383C31.9014 99.1914 31.9043 99.1592 31.9043 99.1416C31.9043 99.0947 31.9072 98.998 31.9131 98.8516C31.9189 98.6992 31.9248 98.5352 31.9307 98.3594C31.9365 98.1836 31.9424 98.0137 31.9482 97.8496C31.9541 97.6855 31.957 97.5684 31.957 97.498C31.957 97.4688 31.957 97.416 31.957 97.3398C31.9629 97.2578 31.9658 97.1699 31.9658 97.0762C31.9658 96.9824 31.9629 96.8975 31.957 96.8213C31.957 96.7451 31.957 96.6865 31.957 96.6455L32.001 96.5312C32.001 96.5254 32.0039 96.4668 32.0098 96.3555C32.0156 96.2383 32.0215 96.1006 32.0273 95.9424C32.0391 95.7842 32.0479 95.623 32.0537 95.459C32.0654 95.2949 32.0713 95.1602 32.0713 95.0547V94.457V93.833C32.0713 93.8096 32.0654 93.7744 32.0537 93.7275C32.0479 93.6807 32.042 93.6338 32.0361 93.5869C32.0303 93.5342 32.0215 93.4902 32.0098 93.4551C32.0039 93.4141 32.001 93.3877 32.001 93.376C31.9717 93.2881 31.9131 93.2266 31.8252 93.1914C31.7432 93.1504 31.6436 93.1211 31.5264 93.1035C31.415 93.0859 31.2949 93.0771 31.166 93.0771C31.043 93.0713 30.9287 93.0596 30.8232 93.042C30.7178 93.0244 30.6299 92.9951 30.5596 92.9541C30.4951 92.9072 30.4629 92.8369 30.4629 92.7432C30.4629 92.6904 30.4805 92.6436 30.5156 92.6025C30.5508 92.5557 30.5918 92.5146 30.6387 92.4795C30.6855 92.4443 30.7354 92.418 30.7881 92.4004C30.8467 92.377 30.8965 92.3652 30.9375 92.3652C31.0195 92.3652 31.1191 92.377 31.2363 92.4004C31.3535 92.4238 31.4443 92.4297 31.5088 92.418C31.5264 92.418 31.5615 92.415 31.6143 92.4092C31.667 92.4033 31.7227 92.3975 31.7812 92.3916C31.8457 92.3857 31.9043 92.3799 31.957 92.374C32.0156 92.3682 32.0537 92.3652 32.0713 92.3652C32.1006 92.3652 32.168 92.3682 32.2734 92.374C32.3789 92.3799 32.4902 92.3857 32.6074 92.3916C32.7305 92.3975 32.8447 92.4062 32.9502 92.418C33.0557 92.4238 33.123 92.4297 33.1523 92.4355H33.2578H33.3369C33.3486 92.4297 33.375 92.4238 33.416 92.418C33.457 92.4062 33.498 92.3975 33.5391 92.3916C33.5859 92.3857 33.627 92.3799 33.6621 92.374C33.7031 92.3682 33.7266 92.3652 33.7324 92.3652H34.1719C34.1777 92.3652 34.1982 92.3623 34.2334 92.3564C34.2686 92.3506 34.3037 92.3447 34.3389 92.3389C34.3799 92.333 34.415 92.3271 34.4443 92.3213C34.4795 92.3154 34.5 92.3125 34.5059 92.3125H34.541C34.5527 92.3125 34.5615 92.3125 34.5674 92.3125C34.5791 92.3066 34.5908 92.3037 34.6025 92.3037C34.6729 92.3037 34.7432 92.3066 34.8135 92.3125C34.8838 92.3184 34.9482 92.333 35.0068 92.3564C35.0654 92.374 35.1123 92.4062 35.1475 92.4531C35.1885 92.5 35.209 92.5645 35.209 92.6465C35.209 92.6641 35.2031 92.6904 35.1914 92.7256C35.1797 92.7549 35.1738 92.7754 35.1738 92.7871C35.127 92.8164 35.0537 92.8604 34.9541 92.9189C34.8545 92.9717 34.7725 93.0039 34.708 93.0156C34.6846 93.0156 34.6318 93.0215 34.5498 93.0332C34.4736 93.0391 34.3916 93.0479 34.3037 93.0596C34.2158 93.0654 34.1338 93.0742 34.0576 93.0859C33.9814 93.0918 33.9346 93.0947 33.917 93.0947C33.8701 93.1006 33.8291 93.1211 33.7939 93.1562C33.7646 93.1855 33.7441 93.2236 33.7324 93.2705C33.6797 93.5342 33.6445 93.7949 33.627 94.0527C33.6152 94.3105 33.6094 94.5742 33.6094 94.8438V95.6875V95.9688C33.6094 95.9746 33.6035 96.0098 33.5918 96.0742C33.5859 96.1328 33.5771 96.2002 33.5654 96.2764C33.5596 96.3467 33.5508 96.4141 33.5391 96.4785C33.5332 96.543 33.5303 96.584 33.5303 96.6016V97.9375V98.4473C33.5303 98.4648 33.5273 98.5029 33.5215 98.5615C33.5156 98.6201 33.5098 98.6816 33.5039 98.7461C33.498 98.8105 33.4922 98.8691 33.4863 98.9219C33.4805 98.9746 33.4775 99.0068 33.4775 99.0186V99.0625V99.1416C33.4775 99.1533 33.4863 99.1855 33.5039 99.2383C33.5215 99.2852 33.5303 99.3145 33.5303 99.3262C33.5303 99.3379 33.5215 99.3584 33.5039 99.3877C33.4863 99.4111 33.4775 99.4316 33.4775 99.4492C33.4717 99.4668 33.4688 99.4844 33.4688 99.502C33.4629 99.5137 33.46 99.5283 33.46 99.5459C33.46 99.5576 33.46 99.5693 33.46 99.5811C33.46 99.6924 33.4922 99.7979 33.5566 99.8975C33.627 99.9912 33.7148 100.038 33.8203 100.038H33.873C34.043 100.009 34.2188 99.9824 34.4004 99.959C34.5879 99.9297 34.7666 99.915 34.9365 99.915H36.4219C36.4453 99.915 36.4834 99.9121 36.5361 99.9062C36.5947 99.9004 36.6504 99.8945 36.7031 99.8887C36.7559 99.8828 36.8027 99.877 36.8438 99.8711C36.8848 99.8594 36.9082 99.8506 36.9141 99.8447C36.9258 99.8389 36.9492 99.8213 36.9844 99.792C37.0195 99.7568 37.0576 99.7188 37.0986 99.6777C37.1455 99.6309 37.1865 99.5869 37.2217 99.5459C37.2627 99.5049 37.292 99.4727 37.3096 99.4492C37.3096 99.4434 37.3154 99.4287 37.3271 99.4053C37.3389 99.376 37.3506 99.3496 37.3623 99.3262C37.374 99.2969 37.3857 99.2705 37.3975 99.2471C37.4092 99.2236 37.418 99.209 37.4238 99.2031C37.4238 99.1973 37.4326 99.1885 37.4502 99.1768C37.4736 99.1592 37.4971 99.1416 37.5205 99.124C37.5439 99.1064 37.5645 99.0918 37.582 99.0801C37.6055 99.0684 37.6201 99.0625 37.626 99.0625L37.6699 99.0186C37.6816 99.0127 37.7051 98.9805 37.7402 98.9219C37.7754 98.8574 37.793 98.8193 37.793 98.8076C37.8164 98.7842 37.8457 98.749 37.8809 98.7021C37.9219 98.6494 37.9629 98.5967 38.0039 98.5439C38.0508 98.4854 38.0918 98.4326 38.127 98.3857C38.1621 98.333 38.1885 98.2979 38.2061 98.2803C38.2295 98.251 38.2441 98.2334 38.25 98.2275C38.2617 98.2217 38.291 98.2188 38.3379 98.2188C38.4316 98.2188 38.5049 98.2568 38.5576 98.333C38.6104 98.4033 38.6484 98.4883 38.6719 98.5879C38.6953 98.6875 38.707 98.79 38.707 98.8955C38.7129 98.9951 38.7158 99.0771 38.7158 99.1416C38.7158 99.1709 38.7158 99.2061 38.7158 99.2471C38.7158 99.2881 38.7158 99.3291 38.7158 99.3701C38.7158 99.4111 38.7129 99.4463 38.707 99.4756C38.707 99.5049 38.707 99.5195 38.707 99.5195C38.707 99.5312 38.6982 99.5635 38.6807 99.6162C38.6631 99.6631 38.6543 99.6924 38.6543 99.7041C38.6426 99.8389 38.6367 99.9561 38.6367 100.056C38.6367 100.149 38.6221 100.231 38.5928 100.302C38.5693 100.372 38.5225 100.431 38.4521 100.478C38.3877 100.524 38.2793 100.565 38.127 100.601C38.0742 100.606 37.9775 100.609 37.8369 100.609C37.6963 100.615 37.5439 100.618 37.3799 100.618C37.2217 100.618 37.0693 100.618 36.9229 100.618C36.7822 100.618 36.6826 100.618 36.624 100.618C36.5186 100.618 36.3838 100.618 36.2197 100.618C36.0557 100.618 35.8945 100.618 35.7363 100.618C35.584 100.618 35.4492 100.615 35.332 100.609C35.2148 100.609 35.1533 100.606 35.1475 100.601C35.1182 100.601 35.0596 100.598 34.9717 100.592C34.8896 100.592 34.7959 100.589 34.6904 100.583C34.5908 100.583 34.4912 100.58 34.3916 100.574C34.2979 100.568 34.2246 100.562 34.1719 100.557C34.166 100.557 34.1484 100.554 34.1191 100.548C34.0898 100.542 34.0576 100.536 34.0225 100.53C33.9873 100.524 33.9551 100.519 33.9258 100.513C33.8965 100.507 33.8789 100.501 33.873 100.495H33.8203H33.7324C33.7031 100.501 33.6445 100.507 33.5566 100.513C33.4688 100.519 33.375 100.524 33.2754 100.53C33.1758 100.536 33.0791 100.542 32.9854 100.548C32.8975 100.554 32.8418 100.557 32.8184 100.557H32.2295C32.2178 100.557 32.1768 100.562 32.1064 100.574C32.042 100.592 32.0068 100.601 32.001 100.601C31.96 100.624 31.9102 100.636 31.8516 100.636C31.7988 100.642 31.7578 100.645 31.7285 100.645C31.7109 100.645 31.6758 100.639 31.623 100.627C31.5703 100.621 31.5117 100.612 31.4473 100.601C31.3887 100.589 31.333 100.577 31.2803 100.565C31.2275 100.56 31.1982 100.557 31.1924 100.557ZM40.4912 93.5957C40.4736 93.4844 40.4502 93.3965 40.4209 93.332C40.3916 93.2617 40.3535 93.2061 40.3066 93.165C40.2598 93.1182 40.2012 93.0771 40.1309 93.042C40.0605 93.0068 39.9727 92.9629 39.8672 92.9102C39.8027 92.8809 39.7354 92.8604 39.665 92.8486C39.6006 92.8311 39.5596 92.8164 39.542 92.8047C39.5068 92.7637 39.4805 92.708 39.4629 92.6377C39.4453 92.5615 39.4365 92.5059 39.4365 92.4707C39.4365 92.459 39.4365 92.4355 39.4365 92.4004C39.4424 92.3594 39.457 92.3301 39.4805 92.3125C39.4922 92.3066 39.5244 92.2979 39.5771 92.2861C39.6299 92.2744 39.6709 92.2627 39.7002 92.251C39.7588 92.2451 39.8232 92.2393 39.8936 92.2334C39.9697 92.2275 40.04 92.2246 40.1045 92.2246C40.2041 92.2246 40.3066 92.2334 40.4121 92.251C40.5176 92.2627 40.6553 92.2832 40.8252 92.3125H41.1592C41.2705 92.3125 41.376 92.3125 41.4756 92.3125C41.5752 92.3125 41.6719 92.3096 41.7656 92.3037C41.8594 92.2979 41.9531 92.292 42.0469 92.2861C42.1406 92.2803 42.2432 92.2686 42.3545 92.251C42.3721 92.251 42.4072 92.2422 42.46 92.2246C42.5127 92.207 42.5449 92.1982 42.5566 92.1982H42.6182C42.7529 92.1982 42.876 92.2217 42.9873 92.2686C43.1045 92.3154 43.1631 92.4121 43.1631 92.5586C43.1631 92.6582 43.1279 92.7344 43.0576 92.7871C42.9873 92.8398 42.9023 92.8867 42.8027 92.9277C42.709 92.9688 42.6123 93.0098 42.5127 93.0508C42.4189 93.0859 42.3457 93.1357 42.293 93.2002C42.2344 93.2646 42.1875 93.3438 42.1523 93.4375C42.1172 93.5254 42.0879 93.6221 42.0645 93.7275C42.0469 93.8271 42.0352 93.9268 42.0293 94.0264C42.0234 94.126 42.0205 94.2139 42.0205 94.29C42.0205 94.3838 42.0322 94.46 42.0557 94.5186C42.085 94.5771 42.0996 94.6475 42.0996 94.7295C42.0996 94.7471 42.0967 94.7734 42.0908 94.8086C42.0908 94.8379 42.082 94.8584 42.0645 94.8701C42.0645 94.8818 42.0615 94.9141 42.0557 94.9668C42.0498 95.0195 42.0439 95.0781 42.0381 95.1426C42.0381 95.2012 42.0352 95.2568 42.0293 95.3096C42.0234 95.3623 42.0205 95.3975 42.0205 95.415V96.1885C42.0205 96.2178 42.0088 96.2676 41.9854 96.3379C41.9678 96.4082 41.9561 96.4551 41.9502 96.4785V96.5752V96.6631C41.9502 96.6748 41.9531 96.7041 41.959 96.751C41.9707 96.7979 41.9795 96.8477 41.9854 96.9004C41.9971 96.9531 42.0059 97.0029 42.0117 97.0498C42.0176 97.0967 42.0205 97.126 42.0205 97.1377C42.0264 97.167 42.0293 97.2197 42.0293 97.2959C42.0352 97.3662 42.041 97.4424 42.0469 97.5244C42.0527 97.6006 42.0557 97.6738 42.0557 97.7441C42.0615 97.8145 42.0645 97.8643 42.0645 97.8936C42.0703 97.9404 42.082 98.002 42.0996 98.0781C42.1172 98.1484 42.1348 98.2217 42.1523 98.2979C42.1758 98.374 42.1992 98.4473 42.2227 98.5176C42.2461 98.5879 42.2695 98.6436 42.293 98.6846C42.3164 98.7432 42.3574 98.8164 42.416 98.9043C42.4805 98.9922 42.5508 99.0801 42.627 99.168C42.7031 99.25 42.7793 99.3232 42.8555 99.3877C42.9375 99.4521 43.0137 99.4932 43.084 99.5107C43.0957 99.5107 43.1221 99.5225 43.1631 99.5459C43.2041 99.5635 43.2393 99.5723 43.2686 99.5723C43.3096 99.5723 43.3301 99.5752 43.3301 99.5811C43.3945 99.5869 43.4531 99.6016 43.5059 99.625C43.5586 99.6426 43.6084 99.6631 43.6553 99.6865C43.7021 99.7041 43.752 99.7217 43.8047 99.7393C43.8574 99.7568 43.916 99.7656 43.9805 99.7656H44.1035C44.1094 99.7598 44.1299 99.748 44.165 99.7305C44.2002 99.7129 44.2354 99.6953 44.2705 99.6777C44.3115 99.6602 44.3467 99.6455 44.376 99.6338C44.4111 99.6221 44.4316 99.6162 44.4375 99.6162H44.5781C44.6367 99.5986 44.6982 99.5811 44.7627 99.5635C44.8096 99.5518 44.8594 99.543 44.9121 99.5371C44.9648 99.5254 45.0059 99.5166 45.0352 99.5107C45.1934 99.458 45.334 99.3613 45.457 99.2207C45.5859 99.0742 45.6885 98.9424 45.7646 98.8252C45.7705 98.8135 45.7793 98.7871 45.791 98.7461C45.8086 98.7051 45.8232 98.6641 45.835 98.623C45.8525 98.5762 45.8672 98.5322 45.8789 98.4912C45.8906 98.4502 45.8965 98.4238 45.8965 98.4121C45.9668 98.2305 46.0195 98.04 46.0547 97.8408C46.0898 97.6416 46.1133 97.4395 46.125 97.2344C46.1367 97.0234 46.1455 96.8154 46.1514 96.6104C46.1572 96.4053 46.1689 96.2061 46.1865 96.0127C46.1865 96.0068 46.1895 95.9893 46.1953 95.96C46.2012 95.9248 46.2041 95.8896 46.2041 95.8545C46.21 95.8135 46.2158 95.7783 46.2217 95.749C46.2275 95.7139 46.2305 95.6904 46.2305 95.6787V95.3096V94.9141C46.2246 94.8672 46.2158 94.7822 46.2041 94.6592C46.1924 94.5361 46.1777 94.4043 46.1602 94.2637C46.1484 94.123 46.1367 93.9912 46.125 93.8682C46.1191 93.7393 46.1162 93.6484 46.1162 93.5957C46.1045 93.5664 46.0811 93.5107 46.0459 93.4287C46.0107 93.3408 45.9814 93.2852 45.958 93.2617C45.9521 93.2324 45.9434 93.2031 45.9316 93.1738C45.9199 93.1387 45.9082 93.1211 45.8965 93.1211C45.8555 93.0801 45.8174 93.0596 45.7822 93.0596C45.7529 93.0596 45.7266 93.0625 45.7031 93.0684C45.6855 93.0742 45.665 93.0771 45.6416 93.0771C45.6123 93.0771 45.5859 93.0713 45.5625 93.0596C45.416 93.0303 45.2812 92.9951 45.1582 92.9541C45.041 92.9131 44.9326 92.8281 44.833 92.6992C44.8213 92.6699 44.8125 92.6494 44.8066 92.6377C44.8066 92.626 44.8066 92.5996 44.8066 92.5586C44.8066 92.5469 44.8096 92.5352 44.8154 92.5234C44.8213 92.5059 44.8271 92.4912 44.833 92.4795C44.9268 92.3623 45.041 92.292 45.1758 92.2686C45.3105 92.2393 45.4512 92.2246 45.5977 92.2246C45.7031 92.2246 45.8086 92.2305 45.9141 92.2422C46.0195 92.248 46.1221 92.251 46.2217 92.251C46.2686 92.251 46.3359 92.2422 46.4238 92.2246C46.5176 92.207 46.5967 92.1982 46.6611 92.1982H47.2061C47.2588 92.1982 47.3203 92.1953 47.3906 92.1895C47.4668 92.1836 47.543 92.1807 47.6191 92.1807C47.7363 92.1807 47.8506 92.1895 47.9619 92.207C48.0732 92.2246 48.167 92.2598 48.2432 92.3125C48.2549 92.3301 48.2607 92.3623 48.2607 92.4092C48.2666 92.4561 48.2695 92.4854 48.2695 92.4971C48.2695 92.6143 48.2402 92.7051 48.1816 92.7695C48.1289 92.8281 48.0586 92.875 47.9707 92.9102C47.8887 92.9395 47.7979 92.9629 47.6982 92.9805C47.6045 92.998 47.5166 93.0244 47.4346 93.0596C47.3408 93.1006 47.2646 93.165 47.2061 93.2529C47.1475 93.3408 47.1182 93.4375 47.1182 93.543C47.1182 93.6367 47.127 93.7188 47.1445 93.7891C47.168 93.8594 47.1797 93.9414 47.1797 94.0352V94.1846C47.1797 94.2021 47.168 94.2402 47.1445 94.2988C47.127 94.3574 47.1182 94.3896 47.1182 94.3955V94.6152V95.125C47.1123 95.1895 47.1064 95.3008 47.1006 95.459C47.0947 95.6172 47.0859 95.7871 47.0742 95.9688C47.0684 96.1445 47.0625 96.3115 47.0566 96.4697C47.0508 96.6279 47.0449 96.7393 47.0391 96.8037C47.0098 96.8623 46.9893 96.9209 46.9775 96.9795C46.9658 97.0322 46.957 97.0879 46.9512 97.1465C46.9453 97.1992 46.9395 97.252 46.9336 97.3047C46.9336 97.3574 46.9248 97.4131 46.9072 97.4717C46.9014 97.4893 46.8926 97.5215 46.8809 97.5684C46.8691 97.6094 46.8545 97.6562 46.8369 97.709C46.8252 97.7617 46.8135 97.8115 46.8018 97.8584C46.79 97.8994 46.7842 97.9258 46.7842 97.9375C46.7725 97.9492 46.7637 97.9785 46.7578 98.0254C46.752 98.0664 46.7461 98.1104 46.7402 98.1572C46.7402 98.1982 46.7344 98.2393 46.7227 98.2803C46.7168 98.3154 46.7109 98.333 46.7051 98.333C46.7051 98.3506 46.6846 98.3916 46.6436 98.4561C46.6025 98.5146 46.5791 98.5498 46.5732 98.5615C46.5615 98.5732 46.541 98.6113 46.5117 98.6758C46.4824 98.7402 46.4473 98.8105 46.4062 98.8867C46.3711 98.9629 46.3359 99.0332 46.3008 99.0977C46.2656 99.1621 46.2422 99.2031 46.2305 99.2207C46.125 99.4199 45.9873 99.5986 45.8174 99.7568C45.6533 99.915 45.4775 100.076 45.29 100.24C45.2666 100.258 45.2314 100.284 45.1846 100.319C45.1377 100.349 45.0879 100.381 45.0352 100.416C44.9883 100.451 44.9443 100.483 44.9033 100.513C44.8623 100.536 44.8389 100.551 44.833 100.557H44.5781C44.4668 100.568 44.3672 100.58 44.2793 100.592C44.1973 100.609 44.1152 100.624 44.0332 100.636C43.9512 100.653 43.8662 100.668 43.7783 100.68C43.6904 100.691 43.5908 100.697 43.4795 100.697H42.9521C42.8877 100.668 42.8203 100.647 42.75 100.636C42.6797 100.624 42.6094 100.612 42.5391 100.601C42.4746 100.595 42.4102 100.583 42.3457 100.565C42.2812 100.554 42.2197 100.53 42.1611 100.495C42.1436 100.489 42.1055 100.469 42.0469 100.434C41.9883 100.393 41.9209 100.346 41.8447 100.293C41.7744 100.24 41.7041 100.19 41.6338 100.144C41.5635 100.091 41.5107 100.047 41.4756 100.012L41.4141 99.9678C41.3672 99.8916 41.3174 99.8271 41.2646 99.7744C41.2119 99.7158 41.1592 99.6602 41.1064 99.6074C41.0537 99.5547 41.001 99.499 40.9482 99.4404C40.9014 99.376 40.8604 99.3027 40.8252 99.2207C40.7021 98.9395 40.6143 98.6377 40.5615 98.3154C40.5146 97.9873 40.4912 97.665 40.4912 97.3486C40.4854 97.2783 40.4795 97.1816 40.4736 97.0586C40.4736 96.9297 40.4736 96.7832 40.4736 96.6191C40.4736 96.4492 40.4736 96.2676 40.4736 96.0742C40.4736 95.8809 40.4736 95.6816 40.4736 95.4766C40.4736 95.2773 40.4736 95.0811 40.4736 94.8877C40.4736 94.6943 40.4736 94.5156 40.4736 94.3516C40.4736 94.1816 40.4736 94.0322 40.4736 93.9033C40.4795 93.7686 40.4854 93.666 40.4912 93.5957ZM54.1318 93.5605C54.1787 93.5371 54.2109 93.4961 54.2285 93.4375C54.2461 93.3789 54.2549 93.3203 54.2549 93.2617C54.2549 93.1387 54.208 93.0537 54.1143 93.0068C54.0264 92.9541 53.9268 92.916 53.8154 92.8926C53.71 92.8633 53.6104 92.834 53.5166 92.8047C53.4287 92.7695 53.3848 92.708 53.3848 92.6201C53.3848 92.5908 53.3965 92.5674 53.4199 92.5498C53.4434 92.5264 53.4727 92.5088 53.5078 92.4971C53.543 92.4795 53.5781 92.4648 53.6133 92.4531C53.6543 92.4414 53.6895 92.4297 53.7188 92.418C53.748 92.4062 53.7949 92.3945 53.8594 92.3828C53.9297 92.3711 53.9707 92.3652 53.9824 92.3652H55.5293C55.6348 92.3184 55.7373 92.292 55.8369 92.2861C55.9365 92.2744 56.0361 92.2686 56.1357 92.2686C56.2119 92.2686 56.2822 92.2715 56.3467 92.2773C56.417 92.2773 56.4756 92.2861 56.5225 92.3037C56.5752 92.3213 56.6162 92.3535 56.6455 92.4004C56.6748 92.4473 56.6895 92.5146 56.6895 92.6025C56.6895 92.7256 56.6543 92.8193 56.584 92.8838C56.5195 92.9482 56.4375 92.998 56.3379 93.0332C56.2383 93.0625 56.1328 93.0859 56.0215 93.1035C55.916 93.1211 55.8223 93.1416 55.7402 93.165C55.4766 93.2588 55.2422 93.3848 55.0371 93.543C54.8379 93.6953 54.6475 93.8828 54.4658 94.1055C54.4482 94.123 54.416 94.1611 54.3691 94.2197C54.3223 94.2725 54.2695 94.3311 54.2109 94.3955C54.1582 94.46 54.1084 94.5215 54.0615 94.5801C54.0146 94.6328 53.9824 94.668 53.9648 94.6855C53.9414 94.7148 53.915 94.75 53.8857 94.791C53.8564 94.832 53.8213 94.8672 53.7803 94.8965C53.7041 94.9609 53.6309 95.043 53.5605 95.1426C53.4902 95.2422 53.4316 95.3389 53.3848 95.4326C53.3613 95.4736 53.3408 95.5117 53.3232 95.5469C53.3115 95.582 53.3057 95.6289 53.3057 95.6875C53.3057 95.8105 53.3379 95.9395 53.4023 96.0742C53.4668 96.209 53.5283 96.335 53.5869 96.4521C53.6104 96.4873 53.6396 96.54 53.6748 96.6104C53.71 96.6748 53.7451 96.7393 53.7803 96.8037C53.8154 96.8682 53.8447 96.9268 53.8682 96.9795C53.8975 97.0322 53.915 97.0645 53.9209 97.0762C53.9268 97.0879 53.9473 97.123 53.9824 97.1816C54.0234 97.2344 54.0674 97.2959 54.1143 97.3662C54.1611 97.4307 54.2021 97.4922 54.2373 97.5508C54.2783 97.6094 54.3047 97.6475 54.3164 97.665L54.5273 98.0605C54.5977 98.2246 54.6709 98.3887 54.7471 98.5527C54.8232 98.7109 54.9053 98.8662 54.9932 99.0186C55.0811 99.165 55.1807 99.3057 55.292 99.4404C55.4033 99.5752 55.5322 99.7041 55.6787 99.8271C55.7314 99.8682 55.7988 99.9033 55.8809 99.9326C55.9629 99.9561 56.042 99.9824 56.1182 100.012C56.2002 100.041 56.2676 100.082 56.3203 100.135C56.3789 100.182 56.4082 100.252 56.4082 100.346C56.4082 100.463 56.3701 100.536 56.2939 100.565C56.2236 100.601 56.1416 100.618 56.0479 100.618C55.9951 100.618 55.9395 100.615 55.8809 100.609C55.8281 100.604 55.7812 100.601 55.7402 100.601C55.7168 100.612 55.6582 100.621 55.5645 100.627C55.4707 100.639 55.3682 100.65 55.2568 100.662C55.1514 100.674 55.0518 100.683 54.958 100.688C54.8643 100.694 54.8057 100.697 54.7822 100.697H54.7383C54.7324 100.697 54.7119 100.694 54.6768 100.688C54.6416 100.683 54.6035 100.674 54.5625 100.662C54.5273 100.65 54.4893 100.639 54.4482 100.627C54.4131 100.621 54.3926 100.612 54.3867 100.601C54.3574 100.601 54.2959 100.598 54.2021 100.592C54.1143 100.586 54.0176 100.58 53.9121 100.574C53.8125 100.574 53.7188 100.571 53.6309 100.565C53.543 100.56 53.4873 100.557 53.4639 100.557C53.4404 100.557 53.3906 100.551 53.3145 100.539C53.2441 100.521 53.1973 100.507 53.1738 100.495V100.434C53.1738 100.34 53.1943 100.275 53.2354 100.24C53.2822 100.205 53.3291 100.176 53.376 100.152C53.4287 100.123 53.4756 100.088 53.5166 100.047C53.5635 100.006 53.5869 99.9326 53.5869 99.8271C53.5869 99.7686 53.5693 99.6748 53.5342 99.5459C53.499 99.417 53.4492 99.2764 53.3848 99.124C53.3262 98.9658 53.2588 98.8047 53.1826 98.6406C53.1123 98.4766 53.0361 98.3271 52.9541 98.1924C52.8779 98.0576 52.8047 97.9463 52.7344 97.8584C52.6641 97.7705 52.6025 97.7266 52.5498 97.7266C52.4502 97.7266 52.3682 97.7559 52.3037 97.8145C52.2393 97.8672 52.1836 97.9346 52.1367 98.0166C52.0898 98.0928 52.0488 98.1748 52.0137 98.2627C51.9785 98.3506 51.9434 98.4268 51.9082 98.4912C51.8906 98.5205 51.8467 98.5908 51.7764 98.7021C51.7061 98.8076 51.627 98.9248 51.5391 99.0537C51.457 99.1826 51.3779 99.3027 51.3018 99.4141C51.2314 99.5254 51.1875 99.5928 51.1699 99.6162C51.1582 99.6221 51.1436 99.6426 51.126 99.6777C51.1143 99.707 51.1025 99.7275 51.0908 99.7393V99.8008C51.0908 99.8828 51.126 99.9414 51.1963 99.9766C51.2666 100.012 51.3486 100.044 51.4424 100.073C51.5361 100.097 51.6299 100.129 51.7236 100.17C51.8232 100.205 51.8994 100.264 51.9521 100.346C51.9521 100.422 51.9316 100.475 51.8906 100.504C51.8555 100.527 51.8115 100.545 51.7588 100.557H49.2979C49.251 100.557 49.2217 100.539 49.21 100.504C49.2041 100.463 49.2012 100.434 49.2012 100.416V100.346C49.2715 100.264 49.3506 100.196 49.4385 100.144C49.5322 100.091 49.626 100.044 49.7197 100.003C49.8193 99.9619 49.9189 99.9238 50.0186 99.8887C50.1182 99.8477 50.2119 99.7979 50.2998 99.7393C50.3232 99.7158 50.3701 99.6719 50.4404 99.6074C50.5107 99.5371 50.584 99.4639 50.6602 99.3877C50.7422 99.3115 50.8184 99.2383 50.8887 99.168C50.9648 99.0977 51.0176 99.0479 51.0469 99.0186C51.1992 98.8428 51.3281 98.6611 51.4336 98.4736C51.5449 98.2803 51.6533 98.084 51.7588 97.8848C51.7705 97.8672 51.7969 97.8408 51.8379 97.8057C51.8789 97.7646 51.9023 97.7383 51.9082 97.7266C51.9258 97.7031 51.9492 97.6709 51.9785 97.6299C52.0137 97.583 52.043 97.5391 52.0664 97.498C52.0957 97.457 52.1191 97.4219 52.1367 97.3926C52.1602 97.3574 52.1719 97.3369 52.1719 97.3311C52.1719 97.3311 52.1719 97.3164 52.1719 97.2871C52.1777 97.252 52.1807 97.2139 52.1807 97.1729C52.1865 97.1318 52.1895 97.0938 52.1895 97.0586C52.1953 97.0176 52.1982 96.9883 52.1982 96.9707C52.1982 96.9531 52.1953 96.9268 52.1895 96.8916C52.1895 96.8564 52.1865 96.8184 52.1807 96.7773C52.1807 96.7363 52.1777 96.6982 52.1719 96.6631C52.1719 96.6221 52.1719 96.5957 52.1719 96.584C52.0078 96.4844 51.8848 96.3701 51.8027 96.2412C51.7207 96.1064 51.6445 95.9541 51.5742 95.7842C51.5684 95.7666 51.5508 95.7344 51.5215 95.6875C51.4922 95.6406 51.4629 95.5938 51.4336 95.5469C51.4043 95.4941 51.375 95.4473 51.3457 95.4062C51.3223 95.3594 51.3076 95.333 51.3018 95.3271C51.2783 95.2803 51.2432 95.207 51.1963 95.1074C51.1553 95.0078 51.1201 94.9375 51.0908 94.8965C51.0791 94.8906 51.0674 94.873 51.0557 94.8438C51.0439 94.8086 51.0322 94.7734 51.0205 94.7383C51.0088 94.7031 50.9971 94.668 50.9854 94.6328C50.9795 94.5977 50.9736 94.5742 50.9678 94.5625L50.9502 94.5449C50.9443 94.5391 50.9355 94.5361 50.9238 94.5361C50.918 94.5303 50.9121 94.5215 50.9062 94.5098C50.8828 94.4922 50.8623 94.4746 50.8447 94.457C50.7275 94.3105 50.6338 94.1582 50.5635 94C50.499 93.8418 50.4111 93.6953 50.2998 93.5605C50.2236 93.4727 50.1445 93.3965 50.0625 93.332C49.9805 93.2617 49.8955 93.1973 49.8076 93.1387C49.7256 93.0801 49.6406 93.0215 49.5527 92.9629C49.4648 92.9043 49.3799 92.8369 49.2979 92.7607C49.251 92.7314 49.2217 92.6963 49.21 92.6553C49.2041 92.6084 49.2012 92.5615 49.2012 92.5146C49.2012 92.4502 49.2158 92.4092 49.2451 92.3916C49.2744 92.374 49.3213 92.3652 49.3857 92.3652H49.4209C49.4209 92.3652 49.4326 92.3682 49.4561 92.374C49.4854 92.3799 49.5146 92.3857 49.5439 92.3916C49.5791 92.3975 49.6084 92.4033 49.6318 92.4092C49.6611 92.415 49.6816 92.418 49.6934 92.418H49.7373C50.1123 92.418 50.4814 92.4062 50.8447 92.3828C51.2139 92.3594 51.583 92.3477 51.9521 92.3477C52.0928 92.3477 52.1953 92.3652 52.2598 92.4004C52.3301 92.4297 52.3652 92.5117 52.3652 92.6465C52.3652 92.7637 52.3418 92.8457 52.2949 92.8926C52.248 92.9336 52.1953 92.9658 52.1367 92.9893C52.0781 93.0127 52.0254 93.042 51.9785 93.0771C51.9316 93.1123 51.9082 93.1826 51.9082 93.2881C51.9082 93.335 51.9258 93.3965 51.9609 93.4727C51.9961 93.543 52.0254 93.5928 52.0488 93.6221C52.0664 93.6514 52.1045 93.7246 52.1631 93.8418C52.2275 93.9531 52.2949 94.0762 52.3652 94.2109C52.4414 94.3398 52.5117 94.46 52.5762 94.5713C52.6406 94.6826 52.6816 94.7529 52.6992 94.7822C52.7402 94.8408 52.7754 94.8877 52.8047 94.9229C52.8398 94.958 52.8809 94.9756 52.9277 94.9756C52.998 94.9756 53.0771 94.9463 53.165 94.8877C53.2588 94.8232 53.3789 94.7354 53.5254 94.624C53.584 94.5771 53.6426 94.5039 53.7012 94.4043C53.7656 94.2988 53.8242 94.1934 53.877 94.0879C53.9297 93.9766 53.9766 93.8711 54.0176 93.7715C54.0645 93.6719 54.1025 93.6016 54.1318 93.5605ZM65.2764 100.539C65.2529 100.539 65.2178 100.542 65.1709 100.548C65.1299 100.548 65.0859 100.548 65.0391 100.548C64.998 100.548 64.96 100.551 64.9248 100.557C64.8896 100.557 64.8721 100.557 64.8721 100.557L64.6611 100.636L63.5801 100.574H61.2773C61.1895 100.545 61.1133 100.524 61.0488 100.513C60.9902 100.501 60.9199 100.495 60.8379 100.495C60.7734 100.495 60.7236 100.498 60.6885 100.504C60.6533 100.51 60.6064 100.527 60.5479 100.557C60.4893 100.557 60.3896 100.554 60.249 100.548C60.1143 100.542 59.9707 100.539 59.8184 100.539C59.666 100.539 59.5195 100.542 59.3789 100.548C59.2441 100.554 59.1533 100.557 59.1064 100.557C59.0889 100.557 59.0566 100.56 59.0098 100.565C58.9688 100.571 58.9219 100.574 58.8691 100.574C58.8223 100.58 58.7754 100.586 58.7285 100.592C58.6875 100.598 58.6611 100.601 58.6494 100.601C58.6318 100.606 58.6113 100.609 58.5879 100.609C58.5703 100.615 58.5527 100.618 58.5352 100.618C58.5234 100.618 58.5117 100.618 58.5 100.618C58.3418 100.618 58.2217 100.601 58.1396 100.565C58.0635 100.536 57.9961 100.442 57.9375 100.284C57.9141 100.284 57.9023 100.278 57.9023 100.267C57.8965 100.261 57.8965 100.252 57.9023 100.24C57.9023 100.193 57.917 100.144 57.9463 100.091C57.9814 100.032 58.0225 99.9795 58.0693 99.9326C58.1221 99.8857 58.1748 99.8477 58.2275 99.8184C58.2861 99.7832 58.3418 99.7656 58.3945 99.7656H59.2295C59.2412 99.7656 59.2793 99.7334 59.3438 99.6689C59.4082 99.5986 59.4609 99.5459 59.502 99.5107C59.5137 99.499 59.5254 99.4756 59.5371 99.4404C59.5547 99.3994 59.5635 99.3701 59.5635 99.3525C59.6338 99.0068 59.6748 98.6641 59.6865 98.3242C59.6982 97.9844 59.7041 97.6299 59.7041 97.2607C59.7041 97.2314 59.7041 97.167 59.7041 97.0674C59.71 96.9619 59.7129 96.8389 59.7129 96.6982C59.7188 96.5576 59.7246 96.4111 59.7305 96.2588C59.7363 96.1006 59.7393 95.9512 59.7393 95.8105C59.7451 95.6699 59.748 95.5498 59.748 95.4502C59.7539 95.3447 59.7568 95.2744 59.7568 95.2393V94.7646C59.7568 94.2959 59.748 93.833 59.7305 93.376C59.7129 92.9189 59.7041 92.4648 59.7041 92.0137V91.9521C59.7041 91.9346 59.707 91.8906 59.7129 91.8203C59.7188 91.7441 59.7246 91.665 59.7305 91.583C59.7363 91.501 59.7422 91.4248 59.748 91.3545C59.7539 91.2842 59.7568 91.2402 59.7568 91.2227C59.7627 91.1699 59.7686 91.0791 59.7744 90.9502C59.7803 90.8154 59.7861 90.6748 59.792 90.5283C59.7979 90.376 59.8037 90.2354 59.8096 90.1064C59.8154 89.9775 59.8184 89.8867 59.8184 89.834C59.7891 89.7461 59.7715 89.6553 59.7656 89.5615C59.7598 89.4619 59.751 89.3682 59.7393 89.2803C59.7275 89.1865 59.7041 89.0986 59.6689 89.0166C59.6338 88.9346 59.5781 88.8643 59.502 88.8057C59.4668 88.7998 59.4053 88.7939 59.3174 88.7881C59.2295 88.7822 59.1357 88.7793 59.0361 88.7793C58.9424 88.7734 58.8516 88.7676 58.7637 88.7617C58.6758 88.7559 58.6172 88.75 58.5879 88.7441C58.4941 88.7324 58.3916 88.7178 58.2803 88.7002C58.1689 88.6768 58.0664 88.6445 57.9727 88.6035C57.8789 88.5566 57.7998 88.4951 57.7354 88.4189C57.6768 88.3428 57.6475 88.2432 57.6475 88.1201L57.6826 88.1025C57.6943 88.0967 57.7031 88.0908 57.709 88.085C57.7148 88.0791 57.7236 88.0762 57.7354 88.0762C57.876 87.9941 58.002 87.9414 58.1133 87.918C58.2246 87.8887 58.3682 87.874 58.5439 87.874H58.5879C58.6055 87.8916 58.623 87.9062 58.6406 87.918C58.6758 87.9414 58.6992 87.9531 58.7109 87.9531C59.0039 87.9766 59.2969 87.9941 59.5898 88.0059C59.8828 88.0117 60.1787 88.0146 60.4775 88.0146C60.7236 88.0146 60.9639 88.0117 61.1982 88.0059C61.4326 88 61.6641 87.9971 61.8926 87.9971H63.835C63.8584 87.9971 63.8965 87.9941 63.9492 87.9883C64.002 87.9824 64.0576 87.9795 64.1162 87.9795C64.1807 87.9736 64.2422 87.9678 64.3008 87.9619C64.3594 87.9561 64.4033 87.9531 64.4326 87.9531H64.4941H64.5469C64.5645 87.9531 64.6055 87.9561 64.6699 87.9619C64.7344 87.9678 64.8047 87.9736 64.8809 87.9795C64.957 87.9795 65.0273 87.9824 65.0918 87.9883C65.1621 87.9941 65.2061 87.9971 65.2236 87.9971H66.2695C66.3164 88.0029 66.3838 88.0088 66.4717 88.0146C66.5654 88.0205 66.6562 88.0264 66.7441 88.0322C66.8379 88.0381 66.9199 88.0469 66.9902 88.0586C67.0605 88.0645 67.0986 88.0703 67.1045 88.0762C67.1104 88.0762 67.1338 88.085 67.1748 88.1025C67.2158 88.1201 67.2598 88.1436 67.3066 88.1729C67.3594 88.1963 67.4092 88.2227 67.4561 88.252C67.5088 88.2812 67.5498 88.3076 67.5791 88.3311C67.6377 88.3662 67.6846 88.4512 67.7197 88.5859C67.7607 88.7148 67.793 88.8584 67.8164 89.0166C67.8398 89.1748 67.8574 89.3301 67.8691 89.4824C67.8867 89.6348 67.9014 89.752 67.9131 89.834C67.9131 89.8633 67.916 89.916 67.9219 89.9922C67.9336 90.0625 67.9424 90.1387 67.9482 90.2207C67.9541 90.3027 67.96 90.3818 67.9658 90.458C67.9717 90.5342 67.9746 90.5869 67.9746 90.6162V90.8535V91.0996C67.9453 91.1523 67.9072 91.1875 67.8604 91.2051C67.8135 91.2168 67.7637 91.2227 67.7109 91.2227H67.6494C67.585 91.1816 67.5381 91.1406 67.5088 91.0996C67.4795 91.0586 67.4561 91.0176 67.4385 90.9766C67.4209 90.9297 67.4033 90.8828 67.3857 90.8359C67.374 90.7891 67.3506 90.7393 67.3154 90.6865C67.3154 90.6807 67.3037 90.6689 67.2803 90.6514C67.2627 90.6279 67.2422 90.6045 67.2188 90.5811C67.1953 90.5576 67.1719 90.5371 67.1484 90.5195C67.125 90.4961 67.1104 90.4814 67.1045 90.4756C67.0225 90.3584 66.9404 90.2266 66.8584 90.0801C66.7822 89.9277 66.6914 89.7871 66.5859 89.6582C66.5801 89.6465 66.5596 89.626 66.5244 89.5967C66.4951 89.5674 66.4746 89.541 66.4629 89.5176C66.457 89.5059 66.4365 89.4971 66.4014 89.4912C66.3662 89.4795 66.3428 89.4678 66.3311 89.4561C66.2607 89.4092 66.2051 89.3564 66.1641 89.2979C66.123 89.2393 66.0791 89.1836 66.0322 89.1309C65.9912 89.0723 65.9443 89.0166 65.8916 88.9639C65.8389 88.9111 65.7656 88.8672 65.6719 88.832C65.625 88.832 65.5342 88.8291 65.3994 88.8232C65.2705 88.8115 65.1328 88.8027 64.9863 88.7969C64.8398 88.7852 64.6992 88.7764 64.5645 88.7705C64.4355 88.7588 64.3447 88.75 64.292 88.7441H63.835C63.8291 88.7441 63.8027 88.7412 63.7559 88.7354C63.7148 88.7236 63.668 88.7148 63.6152 88.709C63.5625 88.6973 63.5127 88.6885 63.4658 88.6826C63.4189 88.6709 63.3896 88.665 63.3779 88.665H63.2461H63.123C63.0996 88.665 63.0469 88.6709 62.9648 88.6826C62.8887 88.6885 62.8037 88.6973 62.71 88.709C62.6221 88.7148 62.5371 88.7236 62.4551 88.7354C62.3789 88.7412 62.332 88.7441 62.3145 88.7441H61.7959C61.7725 88.7441 61.7461 88.7529 61.7168 88.7705C61.6875 88.7822 61.6729 88.7939 61.6729 88.8057V89.8955C61.667 90.083 61.6406 90.2617 61.5938 90.4316C61.5469 90.6016 61.5234 90.7744 61.5234 90.9502C61.5234 91.2139 61.5352 91.4805 61.5586 91.75C61.5879 92.0137 61.6025 92.2832 61.6025 92.5586C61.6025 92.7461 61.5879 92.9365 61.5586 93.1299C61.5352 93.3232 61.5234 93.5225 61.5234 93.7275V93.7891C61.541 93.8066 61.5645 93.833 61.5938 93.8682C61.623 93.8975 61.6494 93.9121 61.6729 93.9121H61.8926H62.1211C62.1328 93.9121 62.1592 93.9092 62.2002 93.9033C62.2412 93.8916 62.2852 93.8828 62.332 93.877C62.3789 93.8652 62.4199 93.8564 62.4551 93.8506C62.4961 93.8389 62.5195 93.833 62.5254 93.833H63.3076C63.3486 93.833 63.4219 93.8301 63.5273 93.8242C63.6387 93.8184 63.7529 93.8154 63.8701 93.8154C63.9932 93.8096 64.1074 93.8037 64.2129 93.7979C64.3184 93.792 64.3916 93.7891 64.4326 93.7891C64.5205 93.7129 64.585 93.6016 64.626 93.4551C64.667 93.3027 64.708 93.1768 64.749 93.0771C64.7549 93.0596 64.7607 93.0186 64.7666 92.9541C64.7783 92.8838 64.79 92.8105 64.8018 92.7344C64.8135 92.6582 64.8252 92.5879 64.8369 92.5234C64.8486 92.4531 64.8604 92.4092 64.8721 92.3916C64.8721 92.3857 64.8779 92.3711 64.8896 92.3477C64.9072 92.3184 64.9248 92.292 64.9424 92.2686C64.96 92.2393 64.9746 92.2129 64.9863 92.1895C65.0039 92.166 65.0156 92.1514 65.0215 92.1455C65.0449 92.0693 65.0596 91.9873 65.0654 91.8994C65.0713 91.8115 65.0859 91.7324 65.1094 91.6621C65.1328 91.5859 65.1709 91.5244 65.2236 91.4775C65.2764 91.4307 65.3613 91.4072 65.4785 91.4072C65.6074 91.4072 65.6924 91.4365 65.7334 91.4951C65.7744 91.5537 65.7949 91.6504 65.7949 91.7852C65.7949 91.832 65.792 91.8672 65.7861 91.8906C65.7803 91.9082 65.7686 91.9492 65.751 92.0137C65.751 92.0195 65.748 92.0342 65.7422 92.0576C65.7363 92.0811 65.7334 92.1074 65.7334 92.1367C65.7334 92.1836 65.7363 92.2275 65.7422 92.2686C65.748 92.3037 65.751 92.3301 65.751 92.3477C65.7451 92.3828 65.7393 92.4561 65.7334 92.5674C65.7275 92.6787 65.7188 92.8076 65.707 92.9541C65.6953 93.1006 65.6836 93.2588 65.6719 93.4287C65.6602 93.5928 65.6484 93.751 65.6367 93.9033C65.625 94.0498 65.6133 94.1787 65.6016 94.29C65.5957 94.4014 65.5898 94.4775 65.584 94.5186C65.584 94.5303 65.5869 94.5859 65.5928 94.6855C65.5986 94.7793 65.6016 94.876 65.6016 94.9756C65.6016 95.0225 65.5957 95.0752 65.584 95.1338C65.5723 95.1865 65.5635 95.2217 65.5576 95.2393C65.5576 95.2393 65.5518 95.2539 65.54 95.2832C65.5342 95.3125 65.5254 95.3477 65.5137 95.3887C65.5078 95.4238 65.499 95.459 65.4873 95.4941C65.4814 95.5234 65.4785 95.5439 65.4785 95.5557C65.4785 95.5732 65.4814 95.6143 65.4873 95.6787C65.4932 95.7432 65.499 95.8135 65.5049 95.8896C65.5166 95.96 65.5254 96.0273 65.5312 96.0918C65.5371 96.1504 65.54 96.1885 65.54 96.2061C65.54 96.2295 65.54 96.2646 65.54 96.3115C65.5459 96.3525 65.5488 96.3965 65.5488 96.4434C65.5488 96.4844 65.5488 96.5254 65.5488 96.5664C65.5547 96.6074 65.5576 96.6396 65.5576 96.6631C65.5576 96.7627 65.5459 96.8535 65.5225 96.9355C65.5049 97.0176 65.4639 97.1084 65.3994 97.208C65.3936 97.2373 65.3643 97.2695 65.3115 97.3047C65.2646 97.334 65.2354 97.3486 65.2236 97.3486C65.2119 97.3486 65.1797 97.334 65.127 97.3047C65.0742 97.2695 65.0391 97.2373 65.0215 97.208C64.9219 97.126 64.8516 97.0117 64.8105 96.8652C64.7754 96.7188 64.752 96.5605 64.7402 96.3906C64.7285 96.2148 64.7227 96.0361 64.7227 95.8545C64.7227 95.6729 64.7109 95.5059 64.6875 95.3535C64.6699 95.1953 64.6318 95.0635 64.5732 94.958C64.5146 94.8525 64.4209 94.7881 64.292 94.7646C64.2451 94.7764 64.1719 94.7822 64.0723 94.7822C63.9727 94.7822 63.8643 94.7822 63.7471 94.7822C63.624 94.7822 63.5068 94.7822 63.3955 94.7822C63.29 94.7822 63.2197 94.7764 63.1846 94.7646C63.1553 94.7646 63.1084 94.7617 63.0439 94.7559C62.9795 94.75 62.9121 94.7471 62.8418 94.7471C62.7773 94.7412 62.7129 94.7354 62.6484 94.7295C62.5898 94.7236 62.5488 94.7207 62.5254 94.7207C62.5195 94.7031 62.4961 94.6826 62.4551 94.6592C62.4141 94.6357 62.3877 94.624 62.376 94.624H62.2881C62.1357 94.624 61.9893 94.6621 61.8486 94.7383C61.7139 94.8086 61.6318 94.9229 61.6025 95.0811C61.5967 95.1221 61.582 95.2041 61.5586 95.3271C61.541 95.4443 61.5205 95.5732 61.4971 95.7139C61.4795 95.8545 61.459 95.9922 61.4355 96.127C61.418 96.2559 61.4062 96.3525 61.4004 96.417V96.4697V96.5312C61.4004 96.5781 61.4033 96.6543 61.4092 96.7598C61.415 96.8652 61.4209 96.9795 61.4268 97.1025C61.4326 97.2197 61.4385 97.334 61.4443 97.4453C61.4561 97.5508 61.4619 97.624 61.4619 97.665C61.4912 97.7119 61.5088 97.7471 61.5146 97.7705C61.5205 97.7939 61.5234 97.8203 61.5234 97.8496C61.5234 98.0781 61.5117 98.3008 61.4883 98.5176C61.4648 98.7344 61.4531 98.9629 61.4531 99.2031C61.4531 99.2266 61.4531 99.2764 61.4531 99.3525C61.459 99.4287 61.4619 99.4814 61.4619 99.5107C61.4678 99.5225 61.4824 99.543 61.5059 99.5723C61.5293 99.5957 61.5527 99.6221 61.5762 99.6514C61.6055 99.6748 61.6348 99.6982 61.6641 99.7217C61.6934 99.7451 61.7139 99.7598 61.7256 99.7656C61.7314 99.7773 61.7578 99.7861 61.8047 99.792C61.8574 99.7979 61.916 99.8037 61.9805 99.8096C62.0449 99.8096 62.1064 99.8154 62.165 99.8271C62.2295 99.833 62.2793 99.8389 62.3145 99.8447C62.3848 99.8447 62.5049 99.8477 62.6748 99.8535C62.8506 99.8594 63.0352 99.8652 63.2285 99.8711C63.4277 99.877 63.6123 99.8828 63.7822 99.8887C63.958 99.8887 64.0811 99.8887 64.1514 99.8887C64.2217 99.918 64.292 99.9385 64.3623 99.9502C64.4385 99.9619 64.5117 99.9678 64.582 99.9678H64.8281H65.2236C65.2295 99.9678 65.25 99.9648 65.2852 99.959C65.3203 99.9473 65.3584 99.9385 65.3994 99.9326C65.4463 99.9209 65.4873 99.9121 65.5225 99.9062C65.5576 99.8945 65.5781 99.8887 65.584 99.8887H67.2539C67.3184 99.8711 67.3799 99.8389 67.4385 99.792C67.4971 99.7393 67.5527 99.6836 67.6055 99.625C67.6582 99.5605 67.7051 99.4961 67.7461 99.4316C67.7871 99.3613 67.8223 99.2998 67.8516 99.2471C67.8691 99.2295 67.8926 99.1885 67.9219 99.124C67.957 99.0596 67.9893 98.9922 68.0186 98.9219C68.0537 98.8457 68.0859 98.7754 68.1152 98.7109C68.1445 98.6465 68.1621 98.6084 68.168 98.5967C68.1797 98.5791 68.2061 98.5439 68.2471 98.4912C68.2881 98.4385 68.3086 98.4062 68.3086 98.3945C68.3145 98.3828 68.3262 98.3506 68.3438 98.2979C68.3613 98.2451 68.3701 98.2129 68.3701 98.2012C68.376 98.1953 68.3906 98.1777 68.4141 98.1484C68.4434 98.1191 68.4727 98.0898 68.502 98.0605C68.5312 98.0312 68.5576 98.002 68.5811 97.9727C68.6045 97.9434 68.6191 97.9229 68.625 97.9111C68.6309 97.9053 68.6426 97.8877 68.6602 97.8584C68.6836 97.8232 68.7041 97.7852 68.7217 97.7441C68.7451 97.6973 68.7627 97.6562 68.7744 97.6211C68.792 97.5801 68.8037 97.5537 68.8096 97.542C68.8213 97.5186 68.8535 97.4834 68.9062 97.4365C68.9648 97.3896 68.9971 97.3604 69.0029 97.3486C69.0146 97.3369 69.0293 97.3281 69.0469 97.3223C69.0645 97.3105 69.0791 97.2988 69.0908 97.2871C69.1084 97.2754 69.126 97.2666 69.1436 97.2607C69.167 97.2725 69.2021 97.3018 69.249 97.3486C69.2959 97.3955 69.3311 97.4307 69.3545 97.4541V97.498C69.3545 97.5684 69.3428 97.6357 69.3193 97.7002C69.3018 97.7646 69.293 97.8291 69.293 97.8936C69.293 97.9756 69.3018 98.0488 69.3193 98.1133C69.3428 98.1719 69.3545 98.2422 69.3545 98.3242V98.3945C69.3545 98.4121 69.3428 98.4443 69.3193 98.4912C69.3018 98.5381 69.293 98.5732 69.293 98.5967V99.625C69.2871 99.6953 69.2783 99.7861 69.2666 99.8975C69.2549 100.003 69.2314 100.105 69.1963 100.205C69.1611 100.299 69.1113 100.381 69.0469 100.451C68.9824 100.521 68.8975 100.557 68.792 100.557H68.748C68.7305 100.551 68.7012 100.545 68.6602 100.539C68.6191 100.533 68.5781 100.527 68.5371 100.521C68.4961 100.516 68.458 100.51 68.4229 100.504C68.3936 100.498 68.376 100.495 68.3701 100.495L68.3174 100.46C68.2822 100.437 68.2646 100.422 68.2646 100.416H68.2119H68.168C67.9629 100.486 67.7695 100.521 67.5879 100.521C67.4062 100.521 67.2158 100.533 67.0166 100.557C66.999 100.557 66.9668 100.56 66.9199 100.565C66.873 100.571 66.8203 100.577 66.7617 100.583C66.709 100.595 66.6592 100.606 66.6123 100.618C66.5654 100.63 66.5361 100.639 66.5244 100.645H66.4805C66.375 100.645 66.2754 100.63 66.1816 100.601C66.0938 100.571 65.9912 100.557 65.874 100.557C65.8623 100.557 65.8301 100.557 65.7773 100.557C65.7305 100.551 65.6748 100.548 65.6104 100.548C65.5518 100.548 65.4902 100.548 65.4258 100.548C65.3672 100.542 65.3174 100.539 65.2764 100.539Z" fill="#151618"/>
</svg>
